G04*
G04 #@! TF.GenerationSoftware,Altium Limited,Altium Designer,26.4.1 (12)*
G04*
G04 Layer_Physical_Order=1*
G04 Layer_Color=255*
%FSLAX25Y25*%
%MOIN*%
G70*
G04*
G04 #@! TF.SameCoordinates,A9A77505-46C6-4194-8F85-70CAA3894FA6*
G04*
G04*
G04 #@! TF.FilePolarity,Positive*
G04*
G01*
G75*
%ADD10C,0.01000*%
%ADD18C,0.06693*%
%ADD19R,0.09843X0.09843*%
%ADD20R,0.06299X0.06299*%
G04:AMPARAMS|DCode=21|XSize=177.17mil|YSize=70.87mil|CornerRadius=17.72mil|HoleSize=0mil|Usage=FLASHONLY|Rotation=270.000|XOffset=0mil|YOffset=0mil|HoleType=Round|Shape=RoundedRectangle|*
%AMROUNDEDRECTD21*
21,1,0.17717,0.03543,0,0,270.0*
21,1,0.14173,0.07087,0,0,270.0*
1,1,0.03543,-0.01772,-0.07087*
1,1,0.03543,-0.01772,0.07087*
1,1,0.03543,0.01772,0.07087*
1,1,0.03543,0.01772,-0.07087*
%
%ADD21ROUNDEDRECTD21*%
G04:AMPARAMS|DCode=22|XSize=129.92mil|YSize=70.87mil|CornerRadius=17.72mil|HoleSize=0mil|Usage=FLASHONLY|Rotation=270.000|XOffset=0mil|YOffset=0mil|HoleType=Round|Shape=RoundedRectangle|*
%AMROUNDEDRECTD22*
21,1,0.12992,0.03543,0,0,270.0*
21,1,0.09449,0.07087,0,0,270.0*
1,1,0.03543,-0.01772,-0.04724*
1,1,0.03543,-0.01772,0.04724*
1,1,0.03543,0.01772,0.04724*
1,1,0.03543,0.01772,-0.04724*
%
%ADD22ROUNDEDRECTD22*%
G04:AMPARAMS|DCode=23|XSize=129.92mil|YSize=70.87mil|CornerRadius=17.72mil|HoleSize=0mil|Usage=FLASHONLY|Rotation=180.000|XOffset=0mil|YOffset=0mil|HoleType=Round|Shape=RoundedRectangle|*
%AMROUNDEDRECTD23*
21,1,0.12992,0.03543,0,0,180.0*
21,1,0.09449,0.07087,0,0,180.0*
1,1,0.03543,-0.04724,0.01772*
1,1,0.03543,0.04724,0.01772*
1,1,0.03543,0.04724,-0.01772*
1,1,0.03543,-0.04724,-0.01772*
%
%ADD23ROUNDEDRECTD23*%
%ADD24R,0.09843X0.09843*%
%ADD25R,0.06299X0.06299*%
%ADD26C,0.05000*%
%ADD27C,0.10000*%
%ADD28C,0.03000*%
%ADD29C,0.07000*%
D10*
X1428000Y69500D02*
X1450200Y91700D01*
Y208200D01*
X1443400Y69500D02*
X1484000Y110100D01*
Y226842D01*
X794000Y929665D02*
Y949658D01*
X803997D01*
X807329Y946326D01*
Y939661D01*
X803997Y936329D01*
X794000D01*
X800665D02*
X807329Y929665D01*
X813993Y949658D02*
Y929665D01*
X823990D01*
X827323Y932997D01*
Y936329D01*
X823990Y939661D01*
X813993D01*
X823990D01*
X827323Y942994D01*
Y946326D01*
X823990Y949658D01*
X813993D01*
X833987Y929665D02*
Y949658D01*
X843984D01*
X847316Y946326D01*
Y939661D01*
X843984Y936329D01*
X833987D01*
X840652D02*
X847316Y929665D01*
X853981Y939661D02*
X867310D01*
X873974Y929665D02*
Y949658D01*
X883971D01*
X887303Y946326D01*
Y939661D01*
X883971Y936329D01*
X873974D01*
X880639D02*
X887303Y929665D01*
X893968D02*
Y942994D01*
X900632Y949658D01*
X907297Y942994D01*
Y929665D01*
Y939661D01*
X893968D01*
X913961Y929665D02*
Y949658D01*
X920626Y942994D01*
X927290Y949658D01*
Y929665D01*
X943952Y949658D02*
X937287D01*
X933955Y946326D01*
Y932997D01*
X937287Y929665D01*
X943952D01*
X947284Y932997D01*
Y946326D01*
X943952Y949658D01*
X953948Y929665D02*
Y949658D01*
X967277Y929665D01*
Y949658D01*
X993935Y939661D02*
X1007264D01*
X1033922Y923000D02*
Y942994D01*
X1043919D01*
X1047252Y939661D01*
Y932997D01*
X1043919Y929665D01*
X1033922D01*
X1053916D02*
X1060581D01*
X1057248D01*
Y949658D01*
X1053916D01*
X1073910Y942994D02*
X1080574D01*
X1083906Y939661D01*
Y929665D01*
X1073910D01*
X1070577Y932997D01*
X1073910Y936329D01*
X1083906D01*
X1103900Y942994D02*
X1093903D01*
X1090571Y939661D01*
Y932997D01*
X1093903Y929665D01*
X1103900D01*
X1113897Y942994D02*
X1120561D01*
X1123893Y939661D01*
Y929665D01*
X1113897D01*
X1110564Y932997D01*
X1113897Y936329D01*
X1123893D01*
X1150552Y923000D02*
Y942994D01*
X1160548D01*
X1163881Y939661D01*
Y932997D01*
X1160548Y929665D01*
X1150552D01*
X1170545Y942994D02*
Y929665D01*
Y936329D01*
X1173877Y939661D01*
X1177209Y942994D01*
X1180542D01*
X1190539Y929665D02*
X1197203D01*
X1193871D01*
Y942994D01*
X1190539D01*
X1207200Y929665D02*
Y942994D01*
X1217197D01*
X1220529Y939661D01*
Y929665D01*
X1240522Y942994D02*
X1230526D01*
X1227193Y939661D01*
Y932997D01*
X1230526Y929665D01*
X1240522D01*
X1247187D02*
X1253851D01*
X1250519D01*
Y942994D01*
X1247187D01*
X1263848Y923000D02*
Y942994D01*
X1273845D01*
X1277177Y939661D01*
Y932997D01*
X1273845Y929665D01*
X1263848D01*
X1287174Y942994D02*
X1293839D01*
X1297171Y939661D01*
Y929665D01*
X1287174D01*
X1283842Y932997D01*
X1287174Y936329D01*
X1297171D01*
X1303835Y929665D02*
X1310500D01*
X1307168D01*
Y949658D01*
X1303835D01*
D18*
X1495900Y923000D02*
D03*
X1485900Y922998D02*
D03*
X1475900D02*
D03*
X1465900D02*
D03*
X1456000D02*
D03*
X1446000Y923000D02*
D03*
X1508000Y474002D02*
D03*
X1498000Y474000D02*
D03*
X1488000D02*
D03*
X1478000D02*
D03*
X1468100D02*
D03*
X1458100Y474002D02*
D03*
X1259998Y757000D02*
D03*
X1260000Y747000D02*
D03*
Y737000D02*
D03*
Y727000D02*
D03*
Y717100D02*
D03*
X1259998Y707100D02*
D03*
X746002Y732400D02*
D03*
X746000Y722400D02*
D03*
Y712500D02*
D03*
Y702500D02*
D03*
Y692500D02*
D03*
X746002Y682500D02*
D03*
X1138400Y418298D02*
D03*
X1148500Y418300D02*
D03*
X959700Y290500D02*
D03*
X959800Y240500D02*
D03*
X959700Y250600D02*
D03*
X959800Y260700D02*
D03*
X959700Y270600D02*
D03*
X959800Y280600D02*
D03*
Y300700D02*
D03*
X959700Y310600D02*
D03*
X959800Y330100D02*
D03*
X959700Y340200D02*
D03*
X959799Y350200D02*
D03*
X959800Y360100D02*
D03*
Y370000D02*
D03*
X959799Y390100D02*
D03*
X959800Y380200D02*
D03*
Y400100D02*
D03*
Y200200D02*
D03*
Y150000D02*
D03*
X959700Y160100D02*
D03*
X959600Y170200D02*
D03*
X959700Y180100D02*
D03*
Y190100D02*
D03*
X959600Y210100D02*
D03*
X959800Y219900D02*
D03*
X1150000Y267390D02*
D03*
X1150200Y217500D02*
D03*
X1150000Y227400D02*
D03*
X1150100Y237400D02*
D03*
X1150000Y247500D02*
D03*
Y257600D02*
D03*
Y277500D02*
D03*
Y287500D02*
D03*
Y306900D02*
D03*
Y317000D02*
D03*
Y327000D02*
D03*
Y337000D02*
D03*
X1150200Y347000D02*
D03*
X1150000Y367000D02*
D03*
Y356897D02*
D03*
Y377100D02*
D03*
X1118400Y418300D02*
D03*
X1108500D02*
D03*
X1098400D02*
D03*
X1088400D02*
D03*
X1078400D02*
D03*
X1068500D02*
D03*
X1058500D02*
D03*
X1048181Y418298D02*
D03*
X1038500Y418300D02*
D03*
X1028500D02*
D03*
X988600Y418400D02*
D03*
X1018500D02*
D03*
X1008600Y418300D02*
D03*
X998500Y418400D02*
D03*
X978600Y418300D02*
D03*
X978400Y408500D02*
D03*
X988400Y408499D02*
D03*
X998500D02*
D03*
X1008300Y408500D02*
D03*
X1018400Y408400D02*
D03*
X1028400Y408499D02*
D03*
X1038400D02*
D03*
X1048500D02*
D03*
X1058500Y408400D02*
D03*
X1068600D02*
D03*
X1078500Y408499D02*
D03*
X1088500D02*
D03*
X1108700Y408500D02*
D03*
X1118500D02*
D03*
X1128300Y408499D02*
D03*
X1138300Y408400D02*
D03*
X1148400Y408500D02*
D03*
X1098500D02*
D03*
X1128400Y418200D02*
D03*
X1150000Y177900D02*
D03*
Y128100D02*
D03*
Y138100D02*
D03*
Y148100D02*
D03*
Y157800D02*
D03*
Y168000D02*
D03*
Y188000D02*
D03*
Y198000D02*
D03*
Y118100D02*
D03*
Y107900D02*
D03*
D19*
X1443400Y69500D02*
D03*
X1428100Y401900D02*
D03*
X1443500D02*
D03*
X1297900Y281200D02*
D03*
X1298100Y265900D02*
D03*
Y250500D02*
D03*
X1428000Y69500D02*
D03*
X1644803Y582646D02*
D03*
X1645000Y598000D02*
D03*
X1599303Y342146D02*
D03*
X1599500Y357500D02*
D03*
X1598303Y387146D02*
D03*
X1598500Y402500D02*
D03*
X1476400Y533600D02*
D03*
X1461100Y866000D02*
D03*
X1476500D02*
D03*
X1330900Y745300D02*
D03*
X1331100Y730000D02*
D03*
Y714600D02*
D03*
X1461000Y533600D02*
D03*
D20*
X1285300Y200500D02*
D03*
X1285100Y210800D02*
D03*
X1285200Y190700D02*
D03*
Y220700D02*
D03*
Y230600D02*
D03*
X1285300Y180600D02*
D03*
X1318300Y664600D02*
D03*
X1318100Y674900D02*
D03*
X1318200Y654800D02*
D03*
Y684800D02*
D03*
Y694700D02*
D03*
X1318300Y644700D02*
D03*
D21*
X1629100Y524200D02*
D03*
X772400Y593800D02*
D03*
D22*
X1653000Y524000D02*
D03*
X748500Y594000D02*
D03*
D23*
X1639200Y542800D02*
D03*
X762300Y575200D02*
D03*
D24*
X1162100Y706600D02*
D03*
X829700Y691300D02*
D03*
Y706700D02*
D03*
X950400Y561100D02*
D03*
X965700Y561300D02*
D03*
X981100D02*
D03*
X1162100Y691200D02*
D03*
X1230000Y329500D02*
D03*
X1245354Y329303D02*
D03*
D25*
X1031100Y548500D02*
D03*
X1020800Y548300D02*
D03*
X1040900Y548400D02*
D03*
X1010900D02*
D03*
X1001000D02*
D03*
X1051000Y548500D02*
D03*
D26*
X1190200Y403600D02*
D03*
X1297900Y560800D02*
D03*
X1344000Y490000D02*
D03*
Y504000D02*
D03*
X1163600Y430000D02*
D03*
X1076300Y429800D02*
D03*
X1145300Y674900D02*
D03*
X1128400Y579900D02*
D03*
X1010900Y493300D02*
D03*
X1118400Y482300D02*
D03*
X995000Y444247D02*
D03*
Y558000D02*
D03*
X1143600Y398800D02*
D03*
X1318300Y419000D02*
D03*
Y491000D02*
D03*
X1497700Y540000D02*
D03*
X1450200Y208200D02*
D03*
X1240200Y445200D02*
D03*
X1233000Y451800D02*
D03*
X1289500Y268400D02*
D03*
X1001000Y440200D02*
D03*
X1166100D02*
D03*
X917900Y637500D02*
D03*
X965647Y386400D02*
D03*
X1056401D02*
D03*
X1092000Y196000D02*
D03*
X1216400Y742000D02*
D03*
X799800Y561100D02*
D03*
X1031600Y138100D02*
D03*
X1333200Y273400D02*
D03*
X1167800Y262100D02*
D03*
X1284200Y618900D02*
D03*
X1386900Y364000D02*
D03*
X1472900Y561700D02*
D03*
X909800Y666200D02*
D03*
X971646Y392500D02*
D03*
X1324000Y406000D02*
D03*
X1312500Y385622D02*
D03*
X1020800Y482500D02*
D03*
X1031100Y449700D02*
D03*
X1108500D02*
D03*
X1080800Y756000D02*
D03*
X1447500Y899200D02*
D03*
X1484000Y226842D02*
D03*
D27*
X1488000Y775200D02*
Y894400D01*
Y488700D02*
Y775200D01*
X1632762Y542800D02*
Y594962D01*
X959600Y210100D02*
X1031600Y138100D01*
X1190200Y403600D02*
X1206900Y420300D01*
Y732500D01*
X1216400Y742000D01*
X1260000Y737000D02*
X1274000D01*
X1312200Y775200D01*
X1488000D01*
X1475900Y906500D02*
Y922998D01*
X1488000Y474000D02*
Y488700D01*
X1475900Y906500D02*
X1488000Y894400D01*
X1300000Y745300D02*
X1330900D01*
X1297900Y560800D02*
X1300000Y745300D01*
X1297900Y281200D02*
Y560800D01*
X978600Y418300D02*
Y519200D01*
X965700Y532100D02*
X978600Y519200D01*
X965700Y532100D02*
Y561300D01*
X1298100Y265900D02*
X1310200D01*
X1344000Y299700D01*
Y490000D01*
X1331100Y730000D02*
X1341000D01*
X1344000Y727000D01*
Y504000D02*
Y727000D01*
X1653000Y524000D02*
Y540000D01*
X1639200Y542800D02*
X1653000Y540000D01*
X1092000Y196000D02*
Y333744D01*
X1152100Y393844D01*
Y404800D01*
X1148400Y408500D02*
X1152100Y404800D01*
X1148400Y408500D02*
Y413300D01*
X1148500Y413400D01*
Y418300D01*
X1221400Y737000D02*
X1260000D01*
X1216400Y742000D02*
X1221400Y737000D01*
X1523500Y524200D02*
X1629100D01*
X1488000Y488700D02*
X1523500Y524200D01*
X1629100Y513700D02*
Y524200D01*
Y513700D02*
X1632000Y510800D01*
X1662000D01*
X1664000Y512800D01*
Y563449D01*
X1644803Y582646D02*
X1664000Y563449D01*
X772400Y588500D02*
X799800Y561100D01*
X772400Y588500D02*
Y593800D01*
X959800Y200200D02*
Y205000D01*
X959600Y205200D02*
X959800Y205000D01*
X959600Y205200D02*
Y210100D01*
X976000D01*
X981400Y215500D01*
Y398000D01*
X978400Y401000D02*
X981400Y398000D01*
X978400Y401000D02*
Y408500D01*
Y413300D01*
X978600Y413500D01*
Y418300D01*
X748500Y589000D02*
X762300Y575200D01*
X748500Y589000D02*
Y594000D01*
Y666300D01*
X755400Y673200D01*
Y710000D01*
X752900Y712500D02*
X755400Y710000D01*
X746000Y712500D02*
X752900D01*
X1632762Y542800D02*
X1639200D01*
X1632762Y594962D02*
X1635800Y598000D01*
X1645000D01*
D28*
X1144100Y243400D02*
X1150100Y237400D01*
X1144100Y243400D02*
Y292000D01*
X1157100Y305000D01*
Y373250D01*
X1163600Y379750D01*
Y430000D01*
X1076300Y429800D02*
Y523200D01*
X1051000Y548500D02*
X1076300Y523200D01*
X1138400Y418298D02*
Y435500D01*
X1145300Y442400D01*
Y674900D01*
X1128400Y418200D02*
Y579900D01*
X1010900Y493300D02*
Y548400D01*
X1118400Y418300D02*
Y482300D01*
X995000Y444247D02*
Y558000D01*
X1088500Y408499D02*
X1098199Y398800D01*
X1143600D01*
X1318300Y419000D02*
Y491000D01*
X1497700Y540000D02*
Y921200D01*
X1495900Y923000D02*
X1497700Y921200D01*
X1240200Y445200D02*
X1256900Y428500D01*
Y291200D02*
Y428500D01*
Y291200D02*
X1289700Y258400D01*
X1304700D01*
X1305600Y257500D01*
Y218000D02*
Y257500D01*
X1298400Y210800D02*
X1305600Y218000D01*
X1285100Y210800D02*
X1298400D01*
X1233000Y451800D02*
X1260000D01*
X1289500Y422300D01*
Y268400D02*
Y422300D01*
X1001000Y440200D02*
Y548400D01*
X1166100Y440200D02*
X1170100Y436200D01*
Y378250D02*
Y436200D01*
X1162300Y370450D02*
X1170100Y378250D01*
X1162300Y259800D02*
Y370450D01*
X1150000Y247500D02*
X1162300Y259800D01*
X1197800Y220700D02*
X1285200D01*
X1188600Y211500D02*
X1197800Y220700D01*
X1144000Y211500D02*
X1188600D01*
X1115200Y182700D02*
X1144000Y211500D01*
X1078000Y182700D02*
X1115200D01*
X1051400Y209300D02*
X1078000Y182700D01*
X1051400Y209300D02*
Y391200D01*
X1068600Y408400D01*
X1047400Y397300D02*
X1058500Y408400D01*
X1047400Y179800D02*
Y397300D01*
Y179800D02*
X1050000Y177200D01*
X1116953D01*
X1144153Y204400D01*
X1281400D01*
X1285300Y200500D01*
X917900Y453200D02*
Y637500D01*
Y453200D02*
X965647Y405453D01*
Y386400D02*
Y405453D01*
X1056401Y386400D02*
X1078500Y408499D01*
X1333200Y273400D02*
X1351500Y291700D01*
Y734000D01*
X1348000Y737500D02*
X1351500Y734000D01*
X1323700Y737500D02*
X1348000D01*
X1318200Y732000D02*
X1323700Y737500D01*
X1318200Y694700D02*
Y732000D01*
X1167800Y262100D02*
X1214400Y308700D01*
Y549100D01*
X1284200Y618900D01*
X1386900Y364000D02*
X1417300Y394400D01*
Y506100D01*
X1472900Y561700D01*
X909800Y666200D02*
X932000Y644000D01*
Y555100D02*
Y644000D01*
Y555100D02*
X969850Y517250D01*
Y394296D02*
Y517250D01*
Y394296D02*
X971646Y392500D01*
X1150000Y377100D02*
X1159600Y386700D01*
Y411600D01*
X1156400Y414800D02*
X1159600Y411600D01*
X1156400Y414800D02*
Y663500D01*
X1196900Y704000D01*
Y738200D01*
X1208800Y750100D01*
X1256900D01*
X1260000Y747000D01*
X1324000Y406000D02*
Y679000D01*
X1318200Y684800D02*
X1324000Y679000D01*
X1312500Y385622D02*
Y662000D01*
X1315100Y664600D01*
X1318300D01*
X1020800Y482500D02*
Y548300D01*
X1031100Y449700D02*
Y548500D01*
X1108500Y418300D02*
Y449700D01*
X1078400Y418300D02*
X1081300Y421200D01*
Y528900D01*
X1080800Y529400D02*
X1081300Y528900D01*
X1080800Y529400D02*
Y756000D01*
D29*
X1468100Y474000D02*
Y514700D01*
X1476400Y523000D01*
Y533600D01*
X1458100Y474002D02*
Y500900D01*
X1461000Y533600D01*
X1456000Y871100D02*
X1461100Y866000D01*
X1456000Y871100D02*
Y922998D01*
X1446000Y923000D02*
X1447500Y921500D01*
Y899200D02*
Y921500D01*
M02*
