M48
;Layer_Color=9474304
;FILE_FORMAT=2:4
INCH,TZ
;TYPE=PLATED
T03F00S00C0.0280
T04F00S00C0.0394
T05F00S00C0.0433
T06F00S00C0.0669
%
T03
X103160Y13810
X145020Y20820
X148400Y22684
X133320Y27340
X128950Y26840
X116780Y26210
X109200Y19600
X105640Y38640
X107630Y42980
X103110Y44970
X100100Y44020
X99500Y44425
X97165Y39250
X96565Y38640
X114360Y39880
X116360Y43000
X116610Y44020
X119020Y40360
X123300Y45180
X124020Y44520
X110850Y44970
X131830Y41900
X132400Y40600
X131250Y38562
X138690Y36400
X147290Y56170
X149770Y54000
X134400Y50400
Y49000
X131830Y49100
X129790Y56080
X128420Y61890
X112840Y57990
X111840Y48230
X102080Y48250
X101090Y49330
X99500Y55800
X79980Y56110
X91790Y63750
X90980Y66620
X108080Y75600
X114530Y67490
X121640Y74200
X144750Y89920
T04
X95980Y15000
X115000Y14810
Y13810
Y12810
Y11810
Y10790
Y15780
Y16800
Y17790
Y18800
Y19800
X115020Y21750
X115000Y22740
X115010Y23740
X115000Y24750
Y25760
Y26739
Y27750
Y28750
Y30690
X95970Y31060
X95980Y30070
X95970Y29050
X95980Y28060
X95970Y27060
X95980Y26070
X95970Y25060
X95980Y24050
Y21990
X95960Y21010
X95980Y20020
X95970Y19010
Y18010
X95960Y17020
X95970Y16010
X95980Y33010
X95970Y34020
X95980Y35020
X95980Y36010
Y37000
Y38020
X95980Y39010
X95980Y40010
X97840Y40850
X97860Y41830
X98860Y41840
X99850
Y40850
X100830Y40850
X100860Y41830
X101850Y41840
X102850Y41830
X102840Y40850
X103840
X103850Y41830
X104818Y41830
X104850Y40850
X105850Y40840
Y41830
X106850
X107840
X107850Y40850
X106860Y40840
X108850Y40850
X108840Y41830
X101840Y40840
X98840Y40850
X109850Y40850
X109840Y41830
X110850
X111840
X111850Y40850
X110870
X112830Y40850
X112840Y41820
X113840Y41830
X113830Y40840
X114840Y40850
X114850Y41830
X115000Y37710
Y36700
Y35690
X115020Y34700
X115000Y33700
Y32700
Y31700
X145810Y47400
X146810Y47400
X147800
X148800
X149800
X150800Y47400
X74600Y68250
X74600Y69250
Y70250
Y71250
Y72240
X74600Y73240
X126000Y73700
Y74700
X126000Y75700
X126000Y72700
Y71710
X126000Y70710
X144600Y92300
X145600Y92300
X146590
X147590
X148590
X149590Y92300
T05
X128530Y18060
X128520Y19070
X128530Y20050
X128510Y21080
X128520Y22070
Y23060
X105100Y54850
X104090Y54840
X103110Y54850
X102080Y54830
X101090Y54840
X100100
X131830Y64470
X131820Y65480
X131830Y66460
X131810Y67490
X131820Y68480
Y69470
T06
X142800Y6950
X144340
X129810Y25050
Y26590
X129790Y28120
X124535Y32930
X123000Y32950
X142810Y40190
X144350
X159850Y40250
X159830Y38715
X159950Y35750
X159930Y34215
X164480Y58265
X164500Y59800
X147640Y53360
X146100
X98110Y56130
X96570
X95040Y56110
X82970Y69130
Y70670
X116210Y70660
Y69120
X133110Y71460
Y73000
X133090Y74530
X146110Y86600
X147650
M30
