G04*
G04 #@! TF.GenerationSoftware,Altium Limited,Altium Designer,26.4.1 (12)*
G04*
G04 Layer_Physical_Order=2*
G04 Layer_Color=16711680*
%FSLAX25Y25*%
%MOIN*%
G70*
G04*
G04 #@! TF.SameCoordinates,A9A77505-46C6-4194-8F85-70CAA3894FA6*
G04*
G04*
G04 #@! TF.FilePolarity,Positive*
G04*
G01*
G75*
%ADD10C,0.01000*%
%ADD18C,0.06693*%
%ADD19R,0.09843X0.09843*%
%ADD20R,0.06299X0.06299*%
G04:AMPARAMS|DCode=21|XSize=177.17mil|YSize=70.87mil|CornerRadius=17.72mil|HoleSize=0mil|Usage=FLASHONLY|Rotation=270.000|XOffset=0mil|YOffset=0mil|HoleType=Round|Shape=RoundedRectangle|*
%AMROUNDEDRECTD21*
21,1,0.17717,0.03543,0,0,270.0*
21,1,0.14173,0.07087,0,0,270.0*
1,1,0.03543,-0.01772,-0.07087*
1,1,0.03543,-0.01772,0.07087*
1,1,0.03543,0.01772,0.07087*
1,1,0.03543,0.01772,-0.07087*
%
%ADD21ROUNDEDRECTD21*%
G04:AMPARAMS|DCode=22|XSize=129.92mil|YSize=70.87mil|CornerRadius=17.72mil|HoleSize=0mil|Usage=FLASHONLY|Rotation=270.000|XOffset=0mil|YOffset=0mil|HoleType=Round|Shape=RoundedRectangle|*
%AMROUNDEDRECTD22*
21,1,0.12992,0.03543,0,0,270.0*
21,1,0.09449,0.07087,0,0,270.0*
1,1,0.03543,-0.01772,-0.04724*
1,1,0.03543,-0.01772,0.04724*
1,1,0.03543,0.01772,0.04724*
1,1,0.03543,0.01772,-0.04724*
%
%ADD22ROUNDEDRECTD22*%
G04:AMPARAMS|DCode=23|XSize=129.92mil|YSize=70.87mil|CornerRadius=17.72mil|HoleSize=0mil|Usage=FLASHONLY|Rotation=180.000|XOffset=0mil|YOffset=0mil|HoleType=Round|Shape=RoundedRectangle|*
%AMROUNDEDRECTD23*
21,1,0.12992,0.03543,0,0,180.0*
21,1,0.09449,0.07087,0,0,180.0*
1,1,0.03543,-0.04724,0.01772*
1,1,0.03543,0.04724,0.01772*
1,1,0.03543,0.04724,-0.01772*
1,1,0.03543,-0.04724,-0.01772*
%
%ADD23ROUNDEDRECTD23*%
%ADD24R,0.09843X0.09843*%
%ADD25R,0.06299X0.06299*%
%ADD26C,0.05000*%
%ADD27C,0.10000*%
%ADD28C,0.03000*%
%ADD29C,0.07000*%
D10*
X1450200Y208200D02*
X1599500Y357500D01*
X1484000Y226842D02*
X1599303Y342146D01*
X1443500Y401900D02*
X1458254Y387146D01*
X1598303D01*
X1428100Y401900D02*
X1446200Y420000D01*
X1581000D01*
X1598500Y402500D01*
D18*
X1495900Y923000D02*
D03*
X1485900Y922998D02*
D03*
X1475900D02*
D03*
X1465900D02*
D03*
X1456000D02*
D03*
X1446000Y923000D02*
D03*
X1508000Y474002D02*
D03*
X1498000Y474000D02*
D03*
X1488000D02*
D03*
X1478000D02*
D03*
X1468100D02*
D03*
X1458100Y474002D02*
D03*
X1259998Y757000D02*
D03*
X1260000Y747000D02*
D03*
Y737000D02*
D03*
Y727000D02*
D03*
Y717100D02*
D03*
X1259998Y707100D02*
D03*
X746002Y732400D02*
D03*
X746000Y722400D02*
D03*
Y712500D02*
D03*
Y702500D02*
D03*
Y692500D02*
D03*
X746002Y682500D02*
D03*
X1138400Y418298D02*
D03*
X1148500Y418300D02*
D03*
X959700Y290500D02*
D03*
X959800Y240500D02*
D03*
X959700Y250600D02*
D03*
X959800Y260700D02*
D03*
X959700Y270600D02*
D03*
X959800Y280600D02*
D03*
Y300700D02*
D03*
X959700Y310600D02*
D03*
X959800Y330100D02*
D03*
X959700Y340200D02*
D03*
X959799Y350200D02*
D03*
X959800Y360100D02*
D03*
Y370000D02*
D03*
X959799Y390100D02*
D03*
X959800Y380200D02*
D03*
Y400100D02*
D03*
Y200200D02*
D03*
Y150000D02*
D03*
X959700Y160100D02*
D03*
X959600Y170200D02*
D03*
X959700Y180100D02*
D03*
Y190100D02*
D03*
X959600Y210100D02*
D03*
X959800Y219900D02*
D03*
X1150000Y267390D02*
D03*
X1150200Y217500D02*
D03*
X1150000Y227400D02*
D03*
X1150100Y237400D02*
D03*
X1150000Y247500D02*
D03*
Y257600D02*
D03*
Y277500D02*
D03*
Y287500D02*
D03*
Y306900D02*
D03*
Y317000D02*
D03*
Y327000D02*
D03*
Y337000D02*
D03*
X1150200Y347000D02*
D03*
X1150000Y367000D02*
D03*
Y356897D02*
D03*
Y377100D02*
D03*
X1118400Y418300D02*
D03*
X1108500D02*
D03*
X1098400D02*
D03*
X1088400D02*
D03*
X1078400D02*
D03*
X1068500D02*
D03*
X1058500D02*
D03*
X1048181Y418298D02*
D03*
X1038500Y418300D02*
D03*
X1028500D02*
D03*
X988600Y418400D02*
D03*
X1018500D02*
D03*
X1008600Y418300D02*
D03*
X998500Y418400D02*
D03*
X978600Y418300D02*
D03*
X978400Y408500D02*
D03*
X988400Y408499D02*
D03*
X998500D02*
D03*
X1008300Y408500D02*
D03*
X1018400Y408400D02*
D03*
X1028400Y408499D02*
D03*
X1038400D02*
D03*
X1048500D02*
D03*
X1058500Y408400D02*
D03*
X1068600D02*
D03*
X1078500Y408499D02*
D03*
X1088500D02*
D03*
X1108700Y408500D02*
D03*
X1118500D02*
D03*
X1128300Y408499D02*
D03*
X1138300Y408400D02*
D03*
X1148400Y408500D02*
D03*
X1098500D02*
D03*
X1128400Y418200D02*
D03*
X1150000Y177900D02*
D03*
Y128100D02*
D03*
Y138100D02*
D03*
Y148100D02*
D03*
Y157800D02*
D03*
Y168000D02*
D03*
Y188000D02*
D03*
Y198000D02*
D03*
Y118100D02*
D03*
Y107900D02*
D03*
D19*
X1443400Y69500D02*
D03*
X1428100Y401900D02*
D03*
X1443500D02*
D03*
X1297900Y281200D02*
D03*
X1298100Y265900D02*
D03*
Y250500D02*
D03*
X1428000Y69500D02*
D03*
X1644803Y582646D02*
D03*
X1645000Y598000D02*
D03*
X1599303Y342146D02*
D03*
X1599500Y357500D02*
D03*
X1598303Y387146D02*
D03*
X1598500Y402500D02*
D03*
X1476400Y533600D02*
D03*
X1461100Y866000D02*
D03*
X1476500D02*
D03*
X1330900Y745300D02*
D03*
X1331100Y730000D02*
D03*
Y714600D02*
D03*
X1461000Y533600D02*
D03*
D20*
X1285300Y200500D02*
D03*
X1285100Y210800D02*
D03*
X1285200Y190700D02*
D03*
Y220700D02*
D03*
Y230600D02*
D03*
X1285300Y180600D02*
D03*
X1318300Y664600D02*
D03*
X1318100Y674900D02*
D03*
X1318200Y654800D02*
D03*
Y684800D02*
D03*
Y694700D02*
D03*
X1318300Y644700D02*
D03*
D21*
X1629100Y524200D02*
D03*
X772400Y593800D02*
D03*
D22*
X1653000Y524000D02*
D03*
X748500Y594000D02*
D03*
D23*
X1639200Y542800D02*
D03*
X762300Y575200D02*
D03*
D24*
X1162100Y706600D02*
D03*
X829700Y691300D02*
D03*
Y706700D02*
D03*
X950400Y561100D02*
D03*
X965700Y561300D02*
D03*
X981100D02*
D03*
X1162100Y691200D02*
D03*
X1230000Y329500D02*
D03*
X1245354Y329303D02*
D03*
D25*
X1031100Y548500D02*
D03*
X1020800Y548300D02*
D03*
X1040900Y548400D02*
D03*
X1010900D02*
D03*
X1001000D02*
D03*
X1051000Y548500D02*
D03*
D26*
X1190200Y403600D02*
D03*
X1297900Y560800D02*
D03*
X1344000Y490000D02*
D03*
Y504000D02*
D03*
X1163600Y430000D02*
D03*
X1076300Y429800D02*
D03*
X1145300Y674900D02*
D03*
X1128400Y579900D02*
D03*
X1010900Y493300D02*
D03*
X1118400Y482300D02*
D03*
X995000Y444247D02*
D03*
Y558000D02*
D03*
X1143600Y398800D02*
D03*
X1318300Y419000D02*
D03*
Y491000D02*
D03*
X1497700Y540000D02*
D03*
X1450200Y208200D02*
D03*
X1240200Y445200D02*
D03*
X1233000Y451800D02*
D03*
X1289500Y268400D02*
D03*
X1001000Y440200D02*
D03*
X1166100D02*
D03*
X917900Y637500D02*
D03*
X965647Y386400D02*
D03*
X1056401D02*
D03*
X1092000Y196000D02*
D03*
X1216400Y742000D02*
D03*
X799800Y561100D02*
D03*
X1031600Y138100D02*
D03*
X1333200Y273400D02*
D03*
X1167800Y262100D02*
D03*
X1284200Y618900D02*
D03*
X1386900Y364000D02*
D03*
X1472900Y561700D02*
D03*
X909800Y666200D02*
D03*
X971646Y392500D02*
D03*
X1324000Y406000D02*
D03*
X1312500Y385622D02*
D03*
X1020800Y482500D02*
D03*
X1031100Y449700D02*
D03*
X1108500D02*
D03*
X1080800Y756000D02*
D03*
X1447500Y899200D02*
D03*
X1484000Y226842D02*
D03*
D27*
X1651444Y508444D02*
X1653000Y524000D01*
X1651000Y504000D02*
X1651444Y508444D01*
X1653000Y510000D02*
Y524000D01*
Y506000D02*
Y510000D01*
X1469400Y504000D02*
X1647000D01*
X1651000D01*
X1344000D02*
X1469400D01*
X1651444Y508444D02*
X1653000Y510000D01*
X1647000Y504000D02*
X1651444Y508444D01*
X1645340Y502340D02*
X1647000Y504000D01*
X1148400Y408500D02*
X1153300Y403600D01*
X1190200D01*
X738400Y742000D02*
X1216400D01*
X736400Y740000D02*
X738400Y742000D01*
X737900Y702500D02*
X746000D01*
X1106800Y560800D02*
X1297900D01*
X1080600Y534600D02*
X1106800Y560800D01*
X954000Y534600D02*
X1080600D01*
X950400Y561100D02*
X954000Y534600D01*
X1344000Y490000D02*
X1469400D01*
Y504000D01*
X1651000D02*
X1653000Y506000D01*
X1478000Y474000D02*
Y481400D01*
X1469400Y490000D02*
X1478000Y481400D01*
X1469400Y490000D02*
X1478000Y487000D01*
X1493340Y502340D01*
X1645340D01*
X1298600Y730000D02*
X1331100D01*
X1260000Y727000D02*
X1298600Y730000D01*
X959800Y219900D02*
X1036800Y296900D01*
X1282200D01*
X1297900Y281200D01*
X1298100Y265900D02*
X1306000D01*
X1309100Y262800D01*
Y142800D02*
Y262800D01*
X1304400Y138100D02*
X1309100Y142800D01*
X1150000Y138100D02*
X1304400D01*
X959700Y190100D02*
X1086100D01*
X1092000Y196000D01*
X736400Y704000D02*
Y740000D01*
Y704000D02*
X737900Y702500D01*
X799800Y561100D02*
X950400D01*
X1031600Y138100D02*
X1150000D01*
X965700Y561300D02*
Y572000D01*
X962500Y575200D02*
X965700Y572000D01*
X762300Y575200D02*
X962500D01*
X1331100Y730000D02*
X1344300D01*
X1417900Y803600D01*
Y885900D01*
X1444700Y912700D01*
X1464900D01*
X1465900Y922998D01*
D28*
X1161400Y432200D02*
X1163600Y430000D01*
X1078700Y432200D02*
X1161400D01*
X1076300Y429800D02*
X1078700Y432200D01*
X1150200Y217500D02*
X1163300Y230600D01*
X1285200D01*
X1145300Y674900D02*
X1318100D01*
X1203300Y654800D02*
X1318200D01*
X1128400Y579900D02*
X1203300Y654800D01*
X1010900Y493300D02*
X1107400D01*
X1118400Y482300D01*
X1092500Y402500D02*
X1098500Y408500D01*
X976053Y402500D02*
X1092500D01*
X972553Y406000D02*
X976053Y402500D01*
X972553Y406000D02*
Y421800D01*
X995000Y444247D01*
Y558000D02*
X1038900D01*
X1040900Y548400D01*
X1143600Y398800D02*
X1146300Y396100D01*
X1295400D01*
X1318300Y419000D01*
Y491000D02*
X1353400Y526100D01*
X1483800D01*
X1497700Y540000D01*
X1499898Y465900D02*
X1508000Y474002D01*
X1272885Y465900D02*
X1499898D01*
X1218785Y411800D02*
X1272885Y465900D01*
X1165100Y411800D02*
X1218785D01*
X1152700Y424200D02*
X1165100Y411800D01*
X1094300Y424200D02*
X1152700D01*
X1088400Y418300D02*
X1094300Y424200D01*
X1068500Y418300D02*
X1074500Y424300D01*
X1088500D01*
X1092400Y428200D01*
X1155400D01*
X1163947Y419653D01*
X1214653D01*
X1240200Y445200D01*
X1058500Y418300D02*
Y422000D01*
X1072700Y436200D01*
X1163100D01*
X1164100Y435200D01*
X1177700D01*
X1194300Y451800D01*
X1233000D01*
X1289500Y243500D02*
Y268400D01*
Y243500D02*
X1291000Y242000D01*
Y195800D02*
Y242000D01*
X1290000Y194800D02*
X1291000Y195800D01*
X1289300Y194800D02*
X1290000D01*
X1285200Y190700D02*
X1289300Y194800D01*
X1001000Y440200D02*
X1166100D01*
X746002Y682500D02*
X791002Y637500D01*
X917900D01*
X965647Y386400D02*
X1056401D01*
X1150000Y267390D02*
X1156010Y273400D01*
X1333200D01*
X1150000Y257600D02*
X1154500Y262100D01*
X1167800D01*
X1284200Y618900D02*
X1292500D01*
X1318300Y644700D01*
X1144300Y221700D02*
X1150000Y227400D01*
X1144300Y210000D02*
Y221700D01*
Y210000D02*
X1146500Y207800D01*
X1258100D01*
X1285300Y180600D01*
X1150000Y327000D02*
X1152500Y329500D01*
X1230000D01*
X1150000Y337000D02*
X1237658D01*
X1245354Y329303D01*
X1150200Y347000D02*
X1167200Y364000D01*
X1386900D01*
X1472900Y561700D02*
X1485900Y574700D01*
Y922998D01*
X1150000Y356897D02*
X1164003Y370900D01*
X1381600D01*
X1470700Y460000D01*
X1511900D01*
X1513900Y462000D01*
Y478500D01*
X1510400Y482000D02*
X1513900Y478500D01*
X1506000Y482000D02*
X1510400D01*
X1498000Y474000D02*
X1506000Y482000D01*
X746000Y692500D02*
X772300Y666200D01*
X909800D01*
X971646Y392500D02*
X1124500D01*
X1150000Y367000D01*
X1138300Y394229D02*
Y408400D01*
Y394229D02*
X1142429Y390100D01*
X1308100D01*
X1324000Y406000D01*
X1128300Y396906D02*
Y408499D01*
Y396906D02*
X1139585Y385622D01*
X1312500D01*
X1098300Y398100D02*
X1108700Y408500D01*
X972000Y398100D02*
X1098300D01*
X968553Y401547D02*
X972000Y398100D01*
X968553Y401547D02*
Y430253D01*
X1020800Y482500D01*
X1031100Y449700D02*
X1108500D01*
X1080800Y756000D02*
X1081800Y757000D01*
X1259998D01*
D29*
X746000Y722400D02*
X756800D01*
X787900Y691300D01*
X829700D01*
X1447500Y899200D02*
X1450500D01*
X1476500Y873200D01*
Y866000D02*
Y873200D01*
X746002Y732400D02*
X804000D01*
X829700Y706700D01*
X1162100Y706600D02*
X1172600Y717100D01*
X1260000D01*
X1162100Y691200D02*
X1244098D01*
X1259998Y707100D01*
M02*
