G04*
G04 #@! TF.GenerationSoftware,Altium Limited,Altium Designer,26.4.1 (12)*
G04*
G04 Layer_Color=255*
%FSLAX25Y25*%
%MOIN*%
G70*
G04*
G04 #@! TF.SameCoordinates,A9A77505-46C6-4194-8F85-70CAA3894FA6*
G04*
G04*
G04 #@! TF.FilePolarity,Positive*
G04*
G01*
G75*
%ADD18C,0.06693*%
%ADD19R,0.09843X0.09843*%
%ADD20R,0.06299X0.06299*%
G04:AMPARAMS|DCode=21|XSize=177.17mil|YSize=70.87mil|CornerRadius=17.72mil|HoleSize=0mil|Usage=FLASHONLY|Rotation=270.000|XOffset=0mil|YOffset=0mil|HoleType=Round|Shape=RoundedRectangle|*
%AMROUNDEDRECTD21*
21,1,0.17717,0.03543,0,0,270.0*
21,1,0.14173,0.07087,0,0,270.0*
1,1,0.03543,-0.01772,-0.07087*
1,1,0.03543,-0.01772,0.07087*
1,1,0.03543,0.01772,0.07087*
1,1,0.03543,0.01772,-0.07087*
%
%ADD21ROUNDEDRECTD21*%
G04:AMPARAMS|DCode=22|XSize=129.92mil|YSize=70.87mil|CornerRadius=17.72mil|HoleSize=0mil|Usage=FLASHONLY|Rotation=270.000|XOffset=0mil|YOffset=0mil|HoleType=Round|Shape=RoundedRectangle|*
%AMROUNDEDRECTD22*
21,1,0.12992,0.03543,0,0,270.0*
21,1,0.09449,0.07087,0,0,270.0*
1,1,0.03543,-0.01772,-0.04724*
1,1,0.03543,-0.01772,0.04724*
1,1,0.03543,0.01772,0.04724*
1,1,0.03543,0.01772,-0.04724*
%
%ADD22ROUNDEDRECTD22*%
G04:AMPARAMS|DCode=23|XSize=129.92mil|YSize=70.87mil|CornerRadius=17.72mil|HoleSize=0mil|Usage=FLASHONLY|Rotation=180.000|XOffset=0mil|YOffset=0mil|HoleType=Round|Shape=RoundedRectangle|*
%AMROUNDEDRECTD23*
21,1,0.12992,0.03543,0,0,180.0*
21,1,0.09449,0.07087,0,0,180.0*
1,1,0.03543,-0.04724,0.01772*
1,1,0.03543,0.04724,0.01772*
1,1,0.03543,0.04724,-0.01772*
1,1,0.03543,-0.04724,-0.01772*
%
%ADD23ROUNDEDRECTD23*%
%ADD24R,0.09843X0.09843*%
%ADD25R,0.06299X0.06299*%
D18*
X1495900Y923000D02*
D03*
X1485900Y922998D02*
D03*
X1475900D02*
D03*
X1465900D02*
D03*
X1456000D02*
D03*
X1446000Y923000D02*
D03*
X1508000Y474002D02*
D03*
X1498000Y474000D02*
D03*
X1488000D02*
D03*
X1478000D02*
D03*
X1468100D02*
D03*
X1458100Y474002D02*
D03*
X1259998Y757000D02*
D03*
X1260000Y747000D02*
D03*
Y737000D02*
D03*
Y727000D02*
D03*
Y717100D02*
D03*
X1259998Y707100D02*
D03*
X746002Y732400D02*
D03*
X746000Y722400D02*
D03*
Y712500D02*
D03*
Y702500D02*
D03*
Y692500D02*
D03*
X746002Y682500D02*
D03*
X1138400Y418298D02*
D03*
X1148500Y418300D02*
D03*
X959700Y290500D02*
D03*
X959800Y240500D02*
D03*
X959700Y250600D02*
D03*
X959800Y260700D02*
D03*
X959700Y270600D02*
D03*
X959800Y280600D02*
D03*
Y300700D02*
D03*
X959700Y310600D02*
D03*
X959800Y330100D02*
D03*
X959700Y340200D02*
D03*
X959799Y350200D02*
D03*
X959800Y360100D02*
D03*
Y370000D02*
D03*
X959799Y390100D02*
D03*
X959800Y380200D02*
D03*
Y400100D02*
D03*
Y200200D02*
D03*
Y150000D02*
D03*
X959700Y160100D02*
D03*
X959600Y170200D02*
D03*
X959700Y180100D02*
D03*
Y190100D02*
D03*
X959600Y210100D02*
D03*
X959800Y219900D02*
D03*
X1150000Y267390D02*
D03*
X1150200Y217500D02*
D03*
X1150000Y227400D02*
D03*
X1150100Y237400D02*
D03*
X1150000Y247500D02*
D03*
Y257600D02*
D03*
Y277500D02*
D03*
Y287500D02*
D03*
Y306900D02*
D03*
Y317000D02*
D03*
Y327000D02*
D03*
Y337000D02*
D03*
X1150200Y347000D02*
D03*
X1150000Y367000D02*
D03*
Y356897D02*
D03*
Y377100D02*
D03*
X1118400Y418300D02*
D03*
X1108500D02*
D03*
X1098400D02*
D03*
X1088400D02*
D03*
X1078400D02*
D03*
X1068500D02*
D03*
X1058500D02*
D03*
X1048181Y418298D02*
D03*
X1038500Y418300D02*
D03*
X1028500D02*
D03*
X988600Y418400D02*
D03*
X1018500D02*
D03*
X1008600Y418300D02*
D03*
X998500Y418400D02*
D03*
X978600Y418300D02*
D03*
X978400Y408500D02*
D03*
X988400Y408499D02*
D03*
X998500D02*
D03*
X1008300Y408500D02*
D03*
X1018400Y408400D02*
D03*
X1028400Y408499D02*
D03*
X1038400D02*
D03*
X1048500D02*
D03*
X1058500Y408400D02*
D03*
X1068600D02*
D03*
X1078500Y408499D02*
D03*
X1088500D02*
D03*
X1108700Y408500D02*
D03*
X1118500D02*
D03*
X1128300Y408499D02*
D03*
X1138300Y408400D02*
D03*
X1148400Y408500D02*
D03*
X1098500D02*
D03*
X1128400Y418200D02*
D03*
X1150000Y177900D02*
D03*
Y128100D02*
D03*
Y138100D02*
D03*
Y148100D02*
D03*
Y157800D02*
D03*
Y168000D02*
D03*
Y188000D02*
D03*
Y198000D02*
D03*
Y118100D02*
D03*
Y107900D02*
D03*
D19*
X1443400Y69500D02*
D03*
X1428100Y401900D02*
D03*
X1443500D02*
D03*
X1297900Y281200D02*
D03*
X1298100Y265900D02*
D03*
Y250500D02*
D03*
X1428000Y69500D02*
D03*
X1644803Y582646D02*
D03*
X1645000Y598000D02*
D03*
X1599303Y342146D02*
D03*
X1599500Y357500D02*
D03*
X1598303Y387146D02*
D03*
X1598500Y402500D02*
D03*
X1476400Y533600D02*
D03*
X1461100Y866000D02*
D03*
X1476500D02*
D03*
X1330900Y745300D02*
D03*
X1331100Y730000D02*
D03*
Y714600D02*
D03*
X1461000Y533600D02*
D03*
D20*
X1285300Y200500D02*
D03*
X1285100Y210800D02*
D03*
X1285200Y190700D02*
D03*
Y220700D02*
D03*
Y230600D02*
D03*
X1285300Y180600D02*
D03*
X1318300Y664600D02*
D03*
X1318100Y674900D02*
D03*
X1318200Y654800D02*
D03*
Y684800D02*
D03*
Y694700D02*
D03*
X1318300Y644700D02*
D03*
D21*
X1629100Y524200D02*
D03*
X772400Y593800D02*
D03*
D22*
X1653000Y524000D02*
D03*
X748500Y594000D02*
D03*
D23*
X1639200Y542800D02*
D03*
X762300Y575200D02*
D03*
D24*
X1162100Y706600D02*
D03*
X829700Y691300D02*
D03*
Y706700D02*
D03*
X950400Y561100D02*
D03*
X965700Y561300D02*
D03*
X981100D02*
D03*
X1162100Y691200D02*
D03*
X1230000Y329500D02*
D03*
X1245354Y329303D02*
D03*
D25*
X1031100Y548500D02*
D03*
X1020800Y548300D02*
D03*
X1040900Y548400D02*
D03*
X1010900D02*
D03*
X1001000D02*
D03*
X1051000Y548500D02*
D03*
M02*
