G04*
G04 #@! TF.GenerationSoftware,Altium Limited,Altium Designer,26.4.1 (12)*
G04*
G04 Layer_Color=128*
%FSLAX25Y25*%
%MOIN*%
G70*
G04*
G04 #@! TF.SameCoordinates,A9A77505-46C6-4194-8F85-70CAA3894FA6*
G04*
G04*
G04 #@! TF.FilePolarity,Positive*
G04*
G01*
G75*
%ADD31C,0.00500*%
D31*
X1493931Y923000D02*
X1497869D01*
X1495900Y921031D02*
Y924969D01*
X1483932Y922998D02*
X1487868D01*
X1485900Y921030D02*
Y924967D01*
X1473932Y922998D02*
X1477868D01*
X1475900Y921030D02*
Y924967D01*
X1463931Y922998D02*
X1467869D01*
X1465900Y921030D02*
Y924967D01*
X1454031Y922998D02*
X1457969D01*
X1456000Y921030D02*
Y924967D01*
X1444032Y923000D02*
X1447968D01*
X1446000Y921031D02*
Y924969D01*
X1440053Y69500D02*
X1446747D01*
X1443400Y66154D02*
Y72847D01*
X1424753Y401900D02*
X1431446D01*
X1428100Y398553D02*
Y405246D01*
X1440154Y401900D02*
X1446846D01*
X1443500Y398553D02*
Y405246D01*
X1283135Y200500D02*
X1287465D01*
X1285300Y198335D02*
Y202665D01*
X1282935Y210800D02*
X1287265D01*
X1285100Y208635D02*
Y212965D01*
X1283035Y190700D02*
X1287365D01*
X1285200Y188535D02*
Y192865D01*
X1283035Y220700D02*
X1287365D01*
X1285200Y218535D02*
Y222865D01*
X1283035Y230600D02*
X1287365D01*
X1285200Y228435D02*
Y232765D01*
X1294553Y281200D02*
X1301246D01*
X1297900Y277853D02*
Y284546D01*
X1294753Y265900D02*
X1301447D01*
X1298100Y262554D02*
Y269247D01*
X1294753Y250500D02*
X1301447D01*
X1298100Y247153D02*
Y253847D01*
X1283135Y180600D02*
X1287465D01*
X1285300Y178435D02*
Y182765D01*
X1424654Y69500D02*
X1431347D01*
X1428000Y66154D02*
Y72847D01*
X1641457Y582646D02*
X1648150D01*
X1644803Y579299D02*
Y585992D01*
X1641654Y598000D02*
X1648346D01*
X1645000Y594654D02*
Y601346D01*
X1627722Y524200D02*
X1630478D01*
X1629100Y522822D02*
Y525578D01*
X1651819Y524000D02*
X1654181D01*
X1653000Y522819D02*
Y525181D01*
X1638019Y542800D02*
X1640381D01*
X1639200Y541619D02*
Y543981D01*
X1506032Y474002D02*
X1509968D01*
X1508000Y472033D02*
Y475970D01*
X1496031Y474000D02*
X1499969D01*
X1498000Y472031D02*
Y475969D01*
X1486032Y474000D02*
X1489968D01*
X1488000Y472031D02*
Y475969D01*
X1476031Y474000D02*
X1479968D01*
X1478000Y472031D02*
Y475969D01*
X1466131Y474000D02*
X1470068D01*
X1468100Y472031D02*
Y475969D01*
X1456131Y474002D02*
X1460069D01*
X1458100Y472033D02*
Y475970D01*
X1258030Y757000D02*
X1261967D01*
X1259998Y755031D02*
Y758968D01*
X1258031Y747000D02*
X1261969D01*
X1260000Y745031D02*
Y748969D01*
X1258031Y737000D02*
X1261969D01*
X1260000Y735032D02*
Y738969D01*
X1258031Y727000D02*
X1261969D01*
X1260000Y725032D02*
Y728968D01*
X1258031Y717100D02*
X1261969D01*
X1260000Y715132D02*
Y719068D01*
X1258030Y707100D02*
X1261967D01*
X1259998Y705131D02*
Y709068D01*
X744033Y732400D02*
X747970D01*
X746002Y730432D02*
Y734369D01*
X744031Y722400D02*
X747968D01*
X746000Y720432D02*
Y724368D01*
X744031Y712500D02*
X747968D01*
X746000Y710532D02*
Y714468D01*
X744031Y702500D02*
X747968D01*
X746000Y700531D02*
Y704468D01*
X744031Y692500D02*
X747968D01*
X746000Y690531D02*
Y694468D01*
X744033Y682500D02*
X747970D01*
X746002Y680532D02*
Y684469D01*
X761119Y575200D02*
X763481D01*
X762300Y574019D02*
Y576381D01*
X747319Y594000D02*
X749681D01*
X748500Y592819D02*
Y595181D01*
X771022Y593800D02*
X773778D01*
X772400Y592422D02*
Y595178D01*
X1595957Y342146D02*
X1602650D01*
X1599303Y338799D02*
Y345492D01*
X1596154Y357500D02*
X1602847D01*
X1599500Y354153D02*
Y360846D01*
X1594957Y387146D02*
X1601650D01*
X1598303Y383799D02*
Y390492D01*
X1595154Y402500D02*
X1601847D01*
X1598500Y399153D02*
Y405847D01*
X1158753Y706600D02*
X1165446D01*
X1162100Y703254D02*
Y709946D01*
X826353Y691300D02*
X833047D01*
X829700Y687954D02*
Y694647D01*
X826353Y706700D02*
X833047D01*
X829700Y703354D02*
Y710046D01*
X1028935Y548500D02*
X1033265D01*
X1031100Y546335D02*
Y550665D01*
X1018635Y548300D02*
X1022965D01*
X1020800Y546135D02*
Y550465D01*
X1038735Y548400D02*
X1043065D01*
X1040900Y546235D02*
Y550565D01*
X1008735Y548400D02*
X1013065D01*
X1010900Y546235D02*
Y550565D01*
X998835Y548400D02*
X1003165D01*
X1001000Y546235D02*
Y550565D01*
X947054Y561100D02*
X953747D01*
X950400Y557754D02*
Y564446D01*
X962354Y561300D02*
X969046D01*
X965700Y557954D02*
Y564646D01*
X977754Y561300D02*
X984447D01*
X981100Y557954D02*
Y564646D01*
X1048835Y548500D02*
X1053165D01*
X1051000Y546335D02*
Y550665D01*
X1158753Y691200D02*
X1165446D01*
X1162100Y687853D02*
Y694547D01*
X1473053Y533600D02*
X1479747D01*
X1476400Y530254D02*
Y536946D01*
X1457753Y866000D02*
X1464447D01*
X1461100Y862654D02*
Y869347D01*
X1473153Y866000D02*
X1479846D01*
X1476500Y862654D02*
Y869347D01*
X1316135Y664600D02*
X1320465D01*
X1318300Y662435D02*
Y666765D01*
X1315935Y674900D02*
X1320265D01*
X1318100Y672735D02*
Y677065D01*
X1316035Y654800D02*
X1320365D01*
X1318200Y652635D02*
Y656965D01*
X1316035Y684800D02*
X1320365D01*
X1318200Y682635D02*
Y686965D01*
X1316035Y694700D02*
X1320365D01*
X1318200Y692535D02*
Y696865D01*
X1327553Y745300D02*
X1334247D01*
X1330900Y741954D02*
Y748646D01*
X1327754Y730000D02*
X1334447D01*
X1331100Y726653D02*
Y733347D01*
X1327754Y714600D02*
X1334447D01*
X1331100Y711253D02*
Y717946D01*
X1316135Y644700D02*
X1320465D01*
X1318300Y642535D02*
Y646865D01*
X1457654Y533600D02*
X1464347D01*
X1461000Y530254D02*
Y536946D01*
X1136432Y418298D02*
X1140368D01*
X1138400Y416330D02*
Y420267D01*
X1146531Y418300D02*
X1150469D01*
X1148500Y416331D02*
Y420268D01*
X957732Y290500D02*
X961668D01*
X959700Y288531D02*
Y292469D01*
X957831Y240500D02*
X961769D01*
X959800Y238531D02*
Y242469D01*
X957732Y250600D02*
X961668D01*
X959700Y248632D02*
Y252569D01*
X957831Y260700D02*
X961769D01*
X959800Y258732D02*
Y262668D01*
X957732Y270600D02*
X961668D01*
X959700Y268632D02*
Y272568D01*
X957831Y280600D02*
X961769D01*
X959800Y278631D02*
Y282569D01*
X957831Y300700D02*
X961769D01*
X959800Y298731D02*
Y302668D01*
X957732Y310600D02*
X961668D01*
X959700Y308631D02*
Y312568D01*
X957831Y330100D02*
X961769D01*
X959800Y328132D02*
Y332068D01*
X957732Y340200D02*
X961668D01*
X959700Y338231D02*
Y342168D01*
X957831Y350200D02*
X961768D01*
X959799Y348232D02*
Y352168D01*
X957831Y360100D02*
X961769D01*
X959800Y358132D02*
Y362069D01*
X957831Y370000D02*
X961769D01*
X959800Y368032D02*
Y371969D01*
X957831Y390100D02*
X961768D01*
X959799Y388131D02*
Y392069D01*
X957831Y380200D02*
X961769D01*
X959800Y378232D02*
Y382169D01*
X957831Y400100D02*
X961769D01*
X959800Y398131D02*
Y402069D01*
X957831Y200200D02*
X961769D01*
X959800Y198231D02*
Y202168D01*
X957831Y150000D02*
X961769D01*
X959800Y148031D02*
Y151969D01*
X957732Y160100D02*
X961668D01*
X959700Y158132D02*
Y162068D01*
X957631Y170200D02*
X961569D01*
X959600Y168231D02*
Y172169D01*
X957732Y180100D02*
X961668D01*
X959700Y178131D02*
Y182069D01*
X957732Y190100D02*
X961668D01*
X959700Y188131D02*
Y192069D01*
X957631Y210100D02*
X961569D01*
X959600Y208132D02*
Y212069D01*
X957831Y219900D02*
X961769D01*
X959800Y217932D02*
Y221868D01*
X1148032Y267390D02*
X1151968D01*
X1150000Y265421D02*
Y269358D01*
X1148232Y217500D02*
X1152168D01*
X1150200Y215531D02*
Y219468D01*
X1148032Y227400D02*
X1151968D01*
X1150000Y225431D02*
Y229368D01*
X1148131Y237400D02*
X1152069D01*
X1150100Y235432D02*
Y239369D01*
X1148032Y247500D02*
X1151968D01*
X1150000Y245532D02*
Y249468D01*
X1148032Y257600D02*
X1151968D01*
X1150000Y255631D02*
Y259569D01*
X1148032Y277500D02*
X1151968D01*
X1150000Y275532D02*
Y279468D01*
X1148032Y287500D02*
X1151968D01*
X1150000Y285531D02*
Y289469D01*
X1148032Y306900D02*
X1151968D01*
X1150000Y304931D02*
Y308869D01*
X1148032Y317000D02*
X1151968D01*
X1150000Y315032D02*
Y318969D01*
X1148032Y327000D02*
X1151968D01*
X1150000Y325031D02*
Y328969D01*
X1148032Y337000D02*
X1151968D01*
X1150000Y335032D02*
Y338968D01*
X1148232Y347000D02*
X1152168D01*
X1150200Y345031D02*
Y348969D01*
X1148032Y367000D02*
X1151968D01*
X1150000Y365032D02*
Y368969D01*
X1148032Y356897D02*
X1151968D01*
X1150000Y354928D02*
Y358865D01*
X1148032Y377100D02*
X1151968D01*
X1150000Y375132D02*
Y379068D01*
X1116432Y418300D02*
X1120368D01*
X1118400Y416331D02*
Y420268D01*
X1106532Y418300D02*
X1110468D01*
X1108500Y416331D02*
Y420268D01*
X1096432Y418300D02*
X1100368D01*
X1098400Y416331D02*
Y420268D01*
X1086432Y418300D02*
X1090368D01*
X1088400Y416331D02*
Y420268D01*
X1076431Y418300D02*
X1080369D01*
X1078400Y416331D02*
Y420268D01*
X1066531Y418300D02*
X1070469D01*
X1068500Y416331D02*
Y420268D01*
X1056532Y418300D02*
X1060468D01*
X1058500Y416331D02*
Y420268D01*
X1046213Y418298D02*
X1050150D01*
X1048181Y416330D02*
Y420267D01*
X1036532Y418300D02*
X1040469D01*
X1038500Y416331D02*
Y420268D01*
X1026532Y418300D02*
X1030468D01*
X1028500Y416331D02*
Y420268D01*
X986631Y418400D02*
X990569D01*
X988600Y416432D02*
Y420368D01*
X1016531Y418400D02*
X1020469D01*
X1018500Y416432D02*
Y420368D01*
X1006631Y418300D02*
X1010569D01*
X1008600Y416331D02*
Y420268D01*
X996531Y418400D02*
X1000469D01*
X998500Y416432D02*
Y420368D01*
X976632Y418300D02*
X980569D01*
X978600Y416331D02*
Y420268D01*
X976431Y408500D02*
X980369D01*
X978400Y406531D02*
Y410468D01*
X986432Y408499D02*
X990368D01*
X988400Y406531D02*
Y410468D01*
X996531Y408499D02*
X1000469D01*
X998500Y406531D02*
Y410468D01*
X1006332Y408500D02*
X1010268D01*
X1008300Y406531D02*
Y410468D01*
X1016432Y408400D02*
X1020368D01*
X1018400Y406431D02*
Y410368D01*
X1026431Y408499D02*
X1030369D01*
X1028400Y406531D02*
Y410468D01*
X1036432Y408499D02*
X1040368D01*
X1038400Y406531D02*
Y410468D01*
X1046531Y408499D02*
X1050469D01*
X1048500Y406531D02*
Y410468D01*
X1056532Y408400D02*
X1060468D01*
X1058500Y406431D02*
Y410368D01*
X1066632Y408400D02*
X1070568D01*
X1068600Y406431D02*
Y410368D01*
X1076532Y408499D02*
X1080468D01*
X1078500Y406531D02*
Y410468D01*
X1086532Y408499D02*
X1090469D01*
X1088500Y406531D02*
Y410468D01*
X1106732Y408500D02*
X1110668D01*
X1108700Y406531D02*
Y410468D01*
X1116531Y408500D02*
X1120469D01*
X1118500Y406531D02*
Y410468D01*
X1126332Y408499D02*
X1130268D01*
X1128300Y406531D02*
Y410468D01*
X1136331Y408400D02*
X1140269D01*
X1138300Y406431D02*
Y410368D01*
X1146432Y408500D02*
X1150368D01*
X1148400Y406531D02*
Y410468D01*
X1096531Y408500D02*
X1100469D01*
X1098500Y406531D02*
Y410468D01*
X1126431Y418200D02*
X1130369D01*
X1128400Y416231D02*
Y420168D01*
X1148032Y177900D02*
X1151968D01*
X1150000Y175932D02*
Y179868D01*
X1148032Y128100D02*
X1151968D01*
X1150000Y126131D02*
Y130069D01*
X1148032Y138100D02*
X1151968D01*
X1150000Y136132D02*
Y140068D01*
X1148032Y148100D02*
X1151968D01*
X1150000Y146132D02*
Y150068D01*
X1148032Y157800D02*
X1151968D01*
X1150000Y155832D02*
Y159768D01*
X1148032Y168000D02*
X1151968D01*
X1150000Y166032D02*
Y169968D01*
X1148032Y188000D02*
X1151968D01*
X1150000Y186031D02*
Y189969D01*
X1148032Y198000D02*
X1151968D01*
X1150000Y196031D02*
Y199969D01*
X1148032Y118100D02*
X1151968D01*
X1150000Y116131D02*
Y120069D01*
X1148032Y107900D02*
X1151968D01*
X1150000Y105931D02*
Y109869D01*
X1226653Y329500D02*
X1233346D01*
X1230000Y326153D02*
Y332846D01*
X1242008Y329303D02*
X1248701D01*
X1245354Y325957D02*
Y332650D01*
X1188800Y403600D02*
X1191600D01*
X1190200Y402200D02*
Y405000D01*
X1296500Y560800D02*
X1299300D01*
X1297900Y559400D02*
Y562200D01*
X1342600Y490000D02*
X1345400D01*
X1344000Y488600D02*
Y491400D01*
X1342600Y504000D02*
X1345400D01*
X1344000Y502600D02*
Y505400D01*
X1162200Y430000D02*
X1165000D01*
X1163600Y428600D02*
Y431400D01*
X1074900Y429800D02*
X1077700D01*
X1076300Y428400D02*
Y431200D01*
X1143900Y674900D02*
X1146700D01*
X1145300Y673500D02*
Y676300D01*
X1127000Y579900D02*
X1129800D01*
X1128400Y578500D02*
Y581300D01*
X1009500Y493300D02*
X1012300D01*
X1010900Y491900D02*
Y494700D01*
X1117000Y482300D02*
X1119800D01*
X1118400Y480900D02*
Y483700D01*
X993600Y444247D02*
X996400D01*
X995000Y442847D02*
Y445647D01*
X993600Y558000D02*
X996400D01*
X995000Y556600D02*
Y559400D01*
X1142200Y398800D02*
X1145000D01*
X1143600Y397400D02*
Y400200D01*
X1316900Y419000D02*
X1319700D01*
X1318300Y417600D02*
Y420400D01*
X1316900Y491000D02*
X1319700D01*
X1318300Y489600D02*
Y492400D01*
X1496300Y540000D02*
X1499100D01*
X1497700Y538600D02*
Y541400D01*
X1448800Y208200D02*
X1451600D01*
X1450200Y206800D02*
Y209600D01*
X1238800Y445200D02*
X1241600D01*
X1240200Y443800D02*
Y446600D01*
X1231600Y451800D02*
X1234400D01*
X1233000Y450400D02*
Y453200D01*
X1288100Y268400D02*
X1290900D01*
X1289500Y267000D02*
Y269800D01*
X999600Y440200D02*
X1002400D01*
X1001000Y438800D02*
Y441600D01*
X1164700Y440200D02*
X1167500D01*
X1166100Y438800D02*
Y441600D01*
X916500Y637500D02*
X919300D01*
X917900Y636100D02*
Y638900D01*
X964247Y386400D02*
X967047D01*
X965647Y385000D02*
Y387800D01*
X1055001Y386400D02*
X1057801D01*
X1056401Y385000D02*
Y387800D01*
X1090600Y196000D02*
X1093400D01*
X1092000Y194600D02*
Y197400D01*
X1215000Y742000D02*
X1217800D01*
X1216400Y740600D02*
Y743400D01*
X798400Y561100D02*
X801200D01*
X799800Y559700D02*
Y562500D01*
X1030200Y138100D02*
X1033000D01*
X1031600Y136700D02*
Y139500D01*
X1331800Y273400D02*
X1334600D01*
X1333200Y272000D02*
Y274800D01*
X1166400Y262100D02*
X1169200D01*
X1167800Y260700D02*
Y263500D01*
X1282800Y618900D02*
X1285600D01*
X1284200Y617500D02*
Y620300D01*
X1385500Y364000D02*
X1388300D01*
X1386900Y362600D02*
Y365400D01*
X1471500Y561700D02*
X1474300D01*
X1472900Y560300D02*
Y563100D01*
X908400Y666200D02*
X911200D01*
X909800Y664800D02*
Y667600D01*
X970246Y392500D02*
X973046D01*
X971646Y391100D02*
Y393900D01*
X1322600Y406000D02*
X1325400D01*
X1324000Y404600D02*
Y407400D01*
X1311100Y385622D02*
X1313900D01*
X1312500Y384222D02*
Y387022D01*
X1019400Y482500D02*
X1022200D01*
X1020800Y481100D02*
Y483900D01*
X1029700Y449700D02*
X1032500D01*
X1031100Y448300D02*
Y451100D01*
X1107100Y449700D02*
X1109900D01*
X1108500Y448300D02*
Y451100D01*
X1079400Y756000D02*
X1082200D01*
X1080800Y754600D02*
Y757400D01*
X1446100Y899200D02*
X1448900D01*
X1447500Y897800D02*
Y900600D01*
X1482600Y226842D02*
X1485400D01*
X1484000Y225442D02*
Y228242D01*
M02*
