G04*
G04 #@! TF.GenerationSoftware,Altium Limited,Altium Designer,26.4.1 (12)*
G04*
G04 Layer_Color=2752767*
%FSLAX25Y25*%
%MOIN*%
G70*
G04*
G04 #@! TF.SameCoordinates,A9A77505-46C6-4194-8F85-70CAA3894FA6*
G04*
G04*
G04 #@! TF.FilePolarity,Positive*
G04*
G01*
G75*
%ADD31C,0.00500*%
%ADD32C,0.00667*%
D31*
X1495900Y921000D02*
X1496900Y922000D01*
X1497900D01*
X1496900Y923000D01*
X1497900Y924000D01*
X1496900D01*
X1495900Y925000D01*
X1494900Y924000D01*
X1493900D01*
X1494900Y923000D01*
X1493900Y922000D01*
X1494900D01*
X1495900Y921000D01*
X1485900Y920998D02*
X1486900Y921998D01*
X1487900D01*
X1486900Y922998D01*
X1487900Y923998D01*
X1486900D01*
X1485900Y924998D01*
X1484900Y923998D01*
X1483900D01*
X1484900Y922998D01*
X1483900Y921998D01*
X1484900D01*
X1485900Y920998D01*
X1475900D02*
X1476900Y921998D01*
X1477900D01*
X1476900Y922998D01*
X1477900Y923998D01*
X1476900D01*
X1475900Y924998D01*
X1474900Y923998D01*
X1473900D01*
X1474900Y922998D01*
X1473900Y921998D01*
X1474900D01*
X1475900Y920998D01*
X1465900D02*
X1466900Y921998D01*
X1467900D01*
X1466900Y922998D01*
X1467900Y923998D01*
X1466900D01*
X1465900Y924998D01*
X1464900Y923998D01*
X1463900D01*
X1464900Y922998D01*
X1463900Y921998D01*
X1464900D01*
X1465900Y920998D01*
X1456000D02*
X1457000Y921998D01*
X1458000D01*
X1457000Y922998D01*
X1458000Y923998D01*
X1457000D01*
X1456000Y924998D01*
X1455000Y923998D01*
X1454000D01*
X1455000Y922998D01*
X1454000Y921998D01*
X1455000D01*
X1456000Y920998D01*
X1446000Y921000D02*
X1447000Y922000D01*
X1448000D01*
X1447000Y923000D01*
X1448000Y924000D01*
X1447000D01*
X1446000Y925000D01*
X1445000Y924000D01*
X1444000D01*
X1445000Y923000D01*
X1444000Y922000D01*
X1445000D01*
X1446000Y921000D01*
X1441400Y67500D02*
Y71500D01*
X1445400D01*
Y67500D01*
X1441400D01*
X1426100Y399900D02*
Y403900D01*
X1430100D01*
Y399900D01*
X1426100D01*
X1441500D02*
Y403900D01*
X1445500D01*
Y399900D01*
X1441500D01*
X1283300Y198500D02*
X1284300Y200500D01*
X1283300Y202500D01*
X1285300Y201500D01*
X1287300Y202500D01*
X1286300Y200500D01*
X1287300Y198500D01*
X1285300Y199500D01*
X1283300Y198500D01*
X1283100Y208800D02*
X1284100Y210800D01*
X1283100Y212800D01*
X1285100Y211800D01*
X1287100Y212800D01*
X1286100Y210800D01*
X1287100Y208800D01*
X1285100Y209800D01*
X1283100Y208800D01*
X1283200Y188700D02*
X1284200Y190700D01*
X1283200Y192700D01*
X1285200Y191700D01*
X1287200Y192700D01*
X1286200Y190700D01*
X1287200Y188700D01*
X1285200Y189700D01*
X1283200Y188700D01*
Y218700D02*
X1284200Y220700D01*
X1283200Y222700D01*
X1285200Y221700D01*
X1287200Y222700D01*
X1286200Y220700D01*
X1287200Y218700D01*
X1285200Y219700D01*
X1283200Y218700D01*
Y228600D02*
X1284200Y230600D01*
X1283200Y232600D01*
X1285200Y231600D01*
X1287200Y232600D01*
X1286200Y230600D01*
X1287200Y228600D01*
X1285200Y229600D01*
X1283200Y228600D01*
X1295900Y279200D02*
Y283200D01*
X1299900D01*
Y279200D01*
X1295900D01*
X1296100Y263900D02*
Y267900D01*
X1300100D01*
Y263900D01*
X1296100D01*
Y248500D02*
Y252500D01*
X1300100D01*
Y248500D01*
X1296100D01*
X1283300Y178600D02*
X1284300Y180600D01*
X1283300Y182600D01*
X1285300Y181600D01*
X1287300Y182600D01*
X1286300Y180600D01*
X1287300Y178600D01*
X1285300Y179600D01*
X1283300Y178600D01*
X1426000Y67500D02*
Y71500D01*
X1430000D01*
Y67500D01*
X1426000D01*
X1642803Y580646D02*
Y584646D01*
X1646803D01*
Y580646D01*
X1642803D01*
X1643000Y596000D02*
Y600000D01*
X1647000D01*
Y596000D01*
X1643000D01*
X1653000Y522000D02*
X1651000Y526000D01*
X1655000D01*
X1653000Y522000D01*
X1639200Y540800D02*
X1637200Y544800D01*
X1641200D01*
X1639200Y540800D01*
X1508000Y472002D02*
X1509000Y473002D01*
X1510000D01*
X1509000Y474002D01*
X1510000Y475002D01*
X1509000D01*
X1508000Y476002D01*
X1507000Y475002D01*
X1506000D01*
X1507000Y474002D01*
X1506000Y473002D01*
X1507000D01*
X1508000Y472002D01*
X1498000Y472000D02*
X1499000Y473000D01*
X1500000D01*
X1499000Y474000D01*
X1500000Y475000D01*
X1499000D01*
X1498000Y476000D01*
X1497000Y475000D01*
X1496000D01*
X1497000Y474000D01*
X1496000Y473000D01*
X1497000D01*
X1498000Y472000D01*
X1488000D02*
X1489000Y473000D01*
X1490000D01*
X1489000Y474000D01*
X1490000Y475000D01*
X1489000D01*
X1488000Y476000D01*
X1487000Y475000D01*
X1486000D01*
X1487000Y474000D01*
X1486000Y473000D01*
X1487000D01*
X1488000Y472000D01*
X1478000D02*
X1479000Y473000D01*
X1480000D01*
X1479000Y474000D01*
X1480000Y475000D01*
X1479000D01*
X1478000Y476000D01*
X1477000Y475000D01*
X1476000D01*
X1477000Y474000D01*
X1476000Y473000D01*
X1477000D01*
X1478000Y472000D01*
X1468100D02*
X1469100Y473000D01*
X1470100D01*
X1469100Y474000D01*
X1470100Y475000D01*
X1469100D01*
X1468100Y476000D01*
X1467100Y475000D01*
X1466100D01*
X1467100Y474000D01*
X1466100Y473000D01*
X1467100D01*
X1468100Y472000D01*
X1458100Y472002D02*
X1459100Y473002D01*
X1460100D01*
X1459100Y474002D01*
X1460100Y475002D01*
X1459100D01*
X1458100Y476002D01*
X1457100Y475002D01*
X1456100D01*
X1457100Y474002D01*
X1456100Y473002D01*
X1457100D01*
X1458100Y472002D01*
X1259998Y755000D02*
X1260998Y756000D01*
X1261998D01*
X1260998Y757000D01*
X1261998Y758000D01*
X1260998D01*
X1259998Y759000D01*
X1258998Y758000D01*
X1257998D01*
X1258998Y757000D01*
X1257998Y756000D01*
X1258998D01*
X1259998Y755000D01*
X1260000Y745000D02*
X1261000Y746000D01*
X1262000D01*
X1261000Y747000D01*
X1262000Y748000D01*
X1261000D01*
X1260000Y749000D01*
X1259000Y748000D01*
X1258000D01*
X1259000Y747000D01*
X1258000Y746000D01*
X1259000D01*
X1260000Y745000D01*
Y735000D02*
X1261000Y736000D01*
X1262000D01*
X1261000Y737000D01*
X1262000Y738000D01*
X1261000D01*
X1260000Y739000D01*
X1259000Y738000D01*
X1258000D01*
X1259000Y737000D01*
X1258000Y736000D01*
X1259000D01*
X1260000Y735000D01*
Y725000D02*
X1261000Y726000D01*
X1262000D01*
X1261000Y727000D01*
X1262000Y728000D01*
X1261000D01*
X1260000Y729000D01*
X1259000Y728000D01*
X1258000D01*
X1259000Y727000D01*
X1258000Y726000D01*
X1259000D01*
X1260000Y725000D01*
Y715100D02*
X1261000Y716100D01*
X1262000D01*
X1261000Y717100D01*
X1262000Y718100D01*
X1261000D01*
X1260000Y719100D01*
X1259000Y718100D01*
X1258000D01*
X1259000Y717100D01*
X1258000Y716100D01*
X1259000D01*
X1260000Y715100D01*
X1259998Y705100D02*
X1260998Y706100D01*
X1261998D01*
X1260998Y707100D01*
X1261998Y708100D01*
X1260998D01*
X1259998Y709100D01*
X1258998Y708100D01*
X1257998D01*
X1258998Y707100D01*
X1257998Y706100D01*
X1258998D01*
X1259998Y705100D01*
X746002Y730400D02*
X747002Y731400D01*
X748002D01*
X747002Y732400D01*
X748002Y733400D01*
X747002D01*
X746002Y734400D01*
X745002Y733400D01*
X744002D01*
X745002Y732400D01*
X744002Y731400D01*
X745002D01*
X746002Y730400D01*
X746000Y720400D02*
X747000Y721400D01*
X748000D01*
X747000Y722400D01*
X748000Y723400D01*
X747000D01*
X746000Y724400D01*
X745000Y723400D01*
X744000D01*
X745000Y722400D01*
X744000Y721400D01*
X745000D01*
X746000Y720400D01*
Y710500D02*
X747000Y711500D01*
X748000D01*
X747000Y712500D01*
X748000Y713500D01*
X747000D01*
X746000Y714500D01*
X745000Y713500D01*
X744000D01*
X745000Y712500D01*
X744000Y711500D01*
X745000D01*
X746000Y710500D01*
Y700500D02*
X747000Y701500D01*
X748000D01*
X747000Y702500D01*
X748000Y703500D01*
X747000D01*
X746000Y704500D01*
X745000Y703500D01*
X744000D01*
X745000Y702500D01*
X744000Y701500D01*
X745000D01*
X746000Y700500D01*
Y690500D02*
X747000Y691500D01*
X748000D01*
X747000Y692500D01*
X748000Y693500D01*
X747000D01*
X746000Y694500D01*
X745000Y693500D01*
X744000D01*
X745000Y692500D01*
X744000Y691500D01*
X745000D01*
X746000Y690500D01*
X746002Y680500D02*
X747002Y681500D01*
X748002D01*
X747002Y682500D01*
X748002Y683500D01*
X747002D01*
X746002Y684500D01*
X745002Y683500D01*
X744002D01*
X745002Y682500D01*
X744002Y681500D01*
X745002D01*
X746002Y680500D01*
X762300Y573200D02*
X760300Y577200D01*
X764300D01*
X762300Y573200D01*
X748500Y592000D02*
X746500Y596000D01*
X750500D01*
X748500Y592000D01*
X1597303Y340146D02*
Y344146D01*
X1601303D01*
Y340146D01*
X1597303D01*
X1597500Y355500D02*
Y359500D01*
X1601500D01*
Y355500D01*
X1597500D01*
X1596303Y385146D02*
Y389146D01*
X1600303D01*
Y385146D01*
X1596303D01*
X1596500Y400500D02*
Y404500D01*
X1600500D01*
Y400500D01*
X1596500D01*
X1160100Y704600D02*
Y708600D01*
X1164100D01*
Y704600D01*
X1160100D01*
X827700Y689300D02*
Y693300D01*
X831700D01*
Y689300D01*
X827700D01*
Y704700D02*
Y708700D01*
X831700D01*
Y704700D01*
X827700D01*
X1029100Y546500D02*
X1030100Y548500D01*
X1029100Y550500D01*
X1031100Y549500D01*
X1033100Y550500D01*
X1032100Y548500D01*
X1033100Y546500D01*
X1031100Y547500D01*
X1029100Y546500D01*
X1018800Y546300D02*
X1019800Y548300D01*
X1018800Y550300D01*
X1020800Y549300D01*
X1022800Y550300D01*
X1021800Y548300D01*
X1022800Y546300D01*
X1020800Y547300D01*
X1018800Y546300D01*
X1038900Y546400D02*
X1039900Y548400D01*
X1038900Y550400D01*
X1040900Y549400D01*
X1042900Y550400D01*
X1041900Y548400D01*
X1042900Y546400D01*
X1040900Y547400D01*
X1038900Y546400D01*
X1008900D02*
X1009900Y548400D01*
X1008900Y550400D01*
X1010900Y549400D01*
X1012900Y550400D01*
X1011900Y548400D01*
X1012900Y546400D01*
X1010900Y547400D01*
X1008900Y546400D01*
X999000D02*
X1000000Y548400D01*
X999000Y550400D01*
X1001000Y549400D01*
X1003000Y550400D01*
X1002000Y548400D01*
X1003000Y546400D01*
X1001000Y547400D01*
X999000Y546400D01*
X948400Y559100D02*
Y563100D01*
X952400D01*
Y559100D01*
X948400D01*
X963700Y559300D02*
Y563300D01*
X967700D01*
Y559300D01*
X963700D01*
X979100D02*
Y563300D01*
X983100D01*
Y559300D01*
X979100D01*
X1049000Y546500D02*
X1050000Y548500D01*
X1049000Y550500D01*
X1051000Y549500D01*
X1053000Y550500D01*
X1052000Y548500D01*
X1053000Y546500D01*
X1051000Y547500D01*
X1049000Y546500D01*
X1160100Y689200D02*
Y693200D01*
X1164100D01*
Y689200D01*
X1160100D01*
X1474400Y531600D02*
Y535600D01*
X1478400D01*
Y531600D01*
X1474400D01*
X1459100Y864000D02*
Y868000D01*
X1463100D01*
Y864000D01*
X1459100D01*
X1474500D02*
Y868000D01*
X1478500D01*
Y864000D01*
X1474500D01*
X1316300Y662600D02*
X1317300Y664600D01*
X1316300Y666600D01*
X1318300Y665600D01*
X1320300Y666600D01*
X1319300Y664600D01*
X1320300Y662600D01*
X1318300Y663600D01*
X1316300Y662600D01*
X1316100Y672900D02*
X1317100Y674900D01*
X1316100Y676900D01*
X1318100Y675900D01*
X1320100Y676900D01*
X1319100Y674900D01*
X1320100Y672900D01*
X1318100Y673900D01*
X1316100Y672900D01*
X1316200Y652800D02*
X1317200Y654800D01*
X1316200Y656800D01*
X1318200Y655800D01*
X1320200Y656800D01*
X1319200Y654800D01*
X1320200Y652800D01*
X1318200Y653800D01*
X1316200Y652800D01*
Y682800D02*
X1317200Y684800D01*
X1316200Y686800D01*
X1318200Y685800D01*
X1320200Y686800D01*
X1319200Y684800D01*
X1320200Y682800D01*
X1318200Y683800D01*
X1316200Y682800D01*
Y692700D02*
X1317200Y694700D01*
X1316200Y696700D01*
X1318200Y695700D01*
X1320200Y696700D01*
X1319200Y694700D01*
X1320200Y692700D01*
X1318200Y693700D01*
X1316200Y692700D01*
X1328900Y743300D02*
Y747300D01*
X1332900D01*
Y743300D01*
X1328900D01*
X1329100Y728000D02*
Y732000D01*
X1333100D01*
Y728000D01*
X1329100D01*
Y712600D02*
Y716600D01*
X1333100D01*
Y712600D01*
X1329100D01*
X1316300Y642700D02*
X1317300Y644700D01*
X1316300Y646700D01*
X1318300Y645700D01*
X1320300Y646700D01*
X1319300Y644700D01*
X1320300Y642700D01*
X1318300Y643700D01*
X1316300Y642700D01*
X1459000Y531600D02*
Y535600D01*
X1463000D01*
Y531600D01*
X1459000D01*
X1138400Y416298D02*
X1139400Y417298D01*
X1140400D01*
X1139400Y418298D01*
X1140400Y419298D01*
X1139400D01*
X1138400Y420298D01*
X1137400Y419298D01*
X1136400D01*
X1137400Y418298D01*
X1136400Y417298D01*
X1137400D01*
X1138400Y416298D01*
X1148500Y416300D02*
X1149500Y417300D01*
X1150500D01*
X1149500Y418300D01*
X1150500Y419300D01*
X1149500D01*
X1148500Y420300D01*
X1147500Y419300D01*
X1146500D01*
X1147500Y418300D01*
X1146500Y417300D01*
X1147500D01*
X1148500Y416300D01*
X959700Y288500D02*
X960700Y289500D01*
X961700D01*
X960700Y290500D01*
X961700Y291500D01*
X960700D01*
X959700Y292500D01*
X958700Y291500D01*
X957700D01*
X958700Y290500D01*
X957700Y289500D01*
X958700D01*
X959700Y288500D01*
X959800Y238500D02*
X960800Y239500D01*
X961800D01*
X960800Y240500D01*
X961800Y241500D01*
X960800D01*
X959800Y242500D01*
X958800Y241500D01*
X957800D01*
X958800Y240500D01*
X957800Y239500D01*
X958800D01*
X959800Y238500D01*
X959700Y248600D02*
X960700Y249600D01*
X961700D01*
X960700Y250600D01*
X961700Y251600D01*
X960700D01*
X959700Y252600D01*
X958700Y251600D01*
X957700D01*
X958700Y250600D01*
X957700Y249600D01*
X958700D01*
X959700Y248600D01*
X959800Y258700D02*
X960800Y259700D01*
X961800D01*
X960800Y260700D01*
X961800Y261700D01*
X960800D01*
X959800Y262700D01*
X958800Y261700D01*
X957800D01*
X958800Y260700D01*
X957800Y259700D01*
X958800D01*
X959800Y258700D01*
X959700Y268600D02*
X960700Y269600D01*
X961700D01*
X960700Y270600D01*
X961700Y271600D01*
X960700D01*
X959700Y272600D01*
X958700Y271600D01*
X957700D01*
X958700Y270600D01*
X957700Y269600D01*
X958700D01*
X959700Y268600D01*
X959800Y278600D02*
X960800Y279600D01*
X961800D01*
X960800Y280600D01*
X961800Y281600D01*
X960800D01*
X959800Y282600D01*
X958800Y281600D01*
X957800D01*
X958800Y280600D01*
X957800Y279600D01*
X958800D01*
X959800Y278600D01*
Y298700D02*
X960800Y299700D01*
X961800D01*
X960800Y300700D01*
X961800Y301700D01*
X960800D01*
X959800Y302700D01*
X958800Y301700D01*
X957800D01*
X958800Y300700D01*
X957800Y299700D01*
X958800D01*
X959800Y298700D01*
X959700Y308600D02*
X960700Y309600D01*
X961700D01*
X960700Y310600D01*
X961700Y311600D01*
X960700D01*
X959700Y312600D01*
X958700Y311600D01*
X957700D01*
X958700Y310600D01*
X957700Y309600D01*
X958700D01*
X959700Y308600D01*
X959800Y328100D02*
X960800Y329100D01*
X961800D01*
X960800Y330100D01*
X961800Y331100D01*
X960800D01*
X959800Y332100D01*
X958800Y331100D01*
X957800D01*
X958800Y330100D01*
X957800Y329100D01*
X958800D01*
X959800Y328100D01*
X959700Y338200D02*
X960700Y339200D01*
X961700D01*
X960700Y340200D01*
X961700Y341200D01*
X960700D01*
X959700Y342200D01*
X958700Y341200D01*
X957700D01*
X958700Y340200D01*
X957700Y339200D01*
X958700D01*
X959700Y338200D01*
X959799Y348200D02*
X960799Y349200D01*
X961799D01*
X960799Y350200D01*
X961799Y351200D01*
X960799D01*
X959799Y352200D01*
X958799Y351200D01*
X957799D01*
X958799Y350200D01*
X957799Y349200D01*
X958799D01*
X959799Y348200D01*
X959800Y358100D02*
X960800Y359100D01*
X961800D01*
X960800Y360100D01*
X961800Y361100D01*
X960800D01*
X959800Y362100D01*
X958800Y361100D01*
X957800D01*
X958800Y360100D01*
X957800Y359100D01*
X958800D01*
X959800Y358100D01*
Y368000D02*
X960800Y369000D01*
X961800D01*
X960800Y370000D01*
X961800Y371000D01*
X960800D01*
X959800Y372000D01*
X958800Y371000D01*
X957800D01*
X958800Y370000D01*
X957800Y369000D01*
X958800D01*
X959800Y368000D01*
X959799Y388100D02*
X960799Y389100D01*
X961799D01*
X960799Y390100D01*
X961799Y391100D01*
X960799D01*
X959799Y392100D01*
X958799Y391100D01*
X957799D01*
X958799Y390100D01*
X957799Y389100D01*
X958799D01*
X959799Y388100D01*
X959800Y378200D02*
X960800Y379200D01*
X961800D01*
X960800Y380200D01*
X961800Y381200D01*
X960800D01*
X959800Y382200D01*
X958800Y381200D01*
X957800D01*
X958800Y380200D01*
X957800Y379200D01*
X958800D01*
X959800Y378200D01*
Y398100D02*
X960800Y399100D01*
X961800D01*
X960800Y400100D01*
X961800Y401100D01*
X960800D01*
X959800Y402100D01*
X958800Y401100D01*
X957800D01*
X958800Y400100D01*
X957800Y399100D01*
X958800D01*
X959800Y398100D01*
Y198200D02*
X960800Y199200D01*
X961800D01*
X960800Y200200D01*
X961800Y201200D01*
X960800D01*
X959800Y202200D01*
X958800Y201200D01*
X957800D01*
X958800Y200200D01*
X957800Y199200D01*
X958800D01*
X959800Y198200D01*
Y148000D02*
X960800Y149000D01*
X961800D01*
X960800Y150000D01*
X961800Y151000D01*
X960800D01*
X959800Y152000D01*
X958800Y151000D01*
X957800D01*
X958800Y150000D01*
X957800Y149000D01*
X958800D01*
X959800Y148000D01*
X959700Y158100D02*
X960700Y159100D01*
X961700D01*
X960700Y160100D01*
X961700Y161100D01*
X960700D01*
X959700Y162100D01*
X958700Y161100D01*
X957700D01*
X958700Y160100D01*
X957700Y159100D01*
X958700D01*
X959700Y158100D01*
X959600Y168200D02*
X960600Y169200D01*
X961600D01*
X960600Y170200D01*
X961600Y171200D01*
X960600D01*
X959600Y172200D01*
X958600Y171200D01*
X957600D01*
X958600Y170200D01*
X957600Y169200D01*
X958600D01*
X959600Y168200D01*
X959700Y178100D02*
X960700Y179100D01*
X961700D01*
X960700Y180100D01*
X961700Y181100D01*
X960700D01*
X959700Y182100D01*
X958700Y181100D01*
X957700D01*
X958700Y180100D01*
X957700Y179100D01*
X958700D01*
X959700Y178100D01*
Y188100D02*
X960700Y189100D01*
X961700D01*
X960700Y190100D01*
X961700Y191100D01*
X960700D01*
X959700Y192100D01*
X958700Y191100D01*
X957700D01*
X958700Y190100D01*
X957700Y189100D01*
X958700D01*
X959700Y188100D01*
X959600Y208100D02*
X960600Y209100D01*
X961600D01*
X960600Y210100D01*
X961600Y211100D01*
X960600D01*
X959600Y212100D01*
X958600Y211100D01*
X957600D01*
X958600Y210100D01*
X957600Y209100D01*
X958600D01*
X959600Y208100D01*
X959800Y217900D02*
X960800Y218900D01*
X961800D01*
X960800Y219900D01*
X961800Y220900D01*
X960800D01*
X959800Y221900D01*
X958800Y220900D01*
X957800D01*
X958800Y219900D01*
X957800Y218900D01*
X958800D01*
X959800Y217900D01*
X1150000Y265390D02*
X1151000Y266390D01*
X1152000D01*
X1151000Y267390D01*
X1152000Y268390D01*
X1151000D01*
X1150000Y269390D01*
X1149000Y268390D01*
X1148000D01*
X1149000Y267390D01*
X1148000Y266390D01*
X1149000D01*
X1150000Y265390D01*
X1150200Y215500D02*
X1151200Y216500D01*
X1152200D01*
X1151200Y217500D01*
X1152200Y218500D01*
X1151200D01*
X1150200Y219500D01*
X1149200Y218500D01*
X1148200D01*
X1149200Y217500D01*
X1148200Y216500D01*
X1149200D01*
X1150200Y215500D01*
X1150000Y225400D02*
X1151000Y226400D01*
X1152000D01*
X1151000Y227400D01*
X1152000Y228400D01*
X1151000D01*
X1150000Y229400D01*
X1149000Y228400D01*
X1148000D01*
X1149000Y227400D01*
X1148000Y226400D01*
X1149000D01*
X1150000Y225400D01*
X1150100Y235400D02*
X1151100Y236400D01*
X1152100D01*
X1151100Y237400D01*
X1152100Y238400D01*
X1151100D01*
X1150100Y239400D01*
X1149100Y238400D01*
X1148100D01*
X1149100Y237400D01*
X1148100Y236400D01*
X1149100D01*
X1150100Y235400D01*
X1150000Y245500D02*
X1151000Y246500D01*
X1152000D01*
X1151000Y247500D01*
X1152000Y248500D01*
X1151000D01*
X1150000Y249500D01*
X1149000Y248500D01*
X1148000D01*
X1149000Y247500D01*
X1148000Y246500D01*
X1149000D01*
X1150000Y245500D01*
Y255600D02*
X1151000Y256600D01*
X1152000D01*
X1151000Y257600D01*
X1152000Y258600D01*
X1151000D01*
X1150000Y259600D01*
X1149000Y258600D01*
X1148000D01*
X1149000Y257600D01*
X1148000Y256600D01*
X1149000D01*
X1150000Y255600D01*
Y275500D02*
X1151000Y276500D01*
X1152000D01*
X1151000Y277500D01*
X1152000Y278500D01*
X1151000D01*
X1150000Y279500D01*
X1149000Y278500D01*
X1148000D01*
X1149000Y277500D01*
X1148000Y276500D01*
X1149000D01*
X1150000Y275500D01*
Y285500D02*
X1151000Y286500D01*
X1152000D01*
X1151000Y287500D01*
X1152000Y288500D01*
X1151000D01*
X1150000Y289500D01*
X1149000Y288500D01*
X1148000D01*
X1149000Y287500D01*
X1148000Y286500D01*
X1149000D01*
X1150000Y285500D01*
Y304900D02*
X1151000Y305900D01*
X1152000D01*
X1151000Y306900D01*
X1152000Y307900D01*
X1151000D01*
X1150000Y308900D01*
X1149000Y307900D01*
X1148000D01*
X1149000Y306900D01*
X1148000Y305900D01*
X1149000D01*
X1150000Y304900D01*
Y315000D02*
X1151000Y316000D01*
X1152000D01*
X1151000Y317000D01*
X1152000Y318000D01*
X1151000D01*
X1150000Y319000D01*
X1149000Y318000D01*
X1148000D01*
X1149000Y317000D01*
X1148000Y316000D01*
X1149000D01*
X1150000Y315000D01*
Y325000D02*
X1151000Y326000D01*
X1152000D01*
X1151000Y327000D01*
X1152000Y328000D01*
X1151000D01*
X1150000Y329000D01*
X1149000Y328000D01*
X1148000D01*
X1149000Y327000D01*
X1148000Y326000D01*
X1149000D01*
X1150000Y325000D01*
Y335000D02*
X1151000Y336000D01*
X1152000D01*
X1151000Y337000D01*
X1152000Y338000D01*
X1151000D01*
X1150000Y339000D01*
X1149000Y338000D01*
X1148000D01*
X1149000Y337000D01*
X1148000Y336000D01*
X1149000D01*
X1150000Y335000D01*
X1150200Y345000D02*
X1151200Y346000D01*
X1152200D01*
X1151200Y347000D01*
X1152200Y348000D01*
X1151200D01*
X1150200Y349000D01*
X1149200Y348000D01*
X1148200D01*
X1149200Y347000D01*
X1148200Y346000D01*
X1149200D01*
X1150200Y345000D01*
X1150000Y365000D02*
X1151000Y366000D01*
X1152000D01*
X1151000Y367000D01*
X1152000Y368000D01*
X1151000D01*
X1150000Y369000D01*
X1149000Y368000D01*
X1148000D01*
X1149000Y367000D01*
X1148000Y366000D01*
X1149000D01*
X1150000Y365000D01*
Y354897D02*
X1151000Y355897D01*
X1152000D01*
X1151000Y356897D01*
X1152000Y357897D01*
X1151000D01*
X1150000Y358897D01*
X1149000Y357897D01*
X1148000D01*
X1149000Y356897D01*
X1148000Y355897D01*
X1149000D01*
X1150000Y354897D01*
Y375100D02*
X1151000Y376100D01*
X1152000D01*
X1151000Y377100D01*
X1152000Y378100D01*
X1151000D01*
X1150000Y379100D01*
X1149000Y378100D01*
X1148000D01*
X1149000Y377100D01*
X1148000Y376100D01*
X1149000D01*
X1150000Y375100D01*
X1118400Y416300D02*
X1119400Y417300D01*
X1120400D01*
X1119400Y418300D01*
X1120400Y419300D01*
X1119400D01*
X1118400Y420300D01*
X1117400Y419300D01*
X1116400D01*
X1117400Y418300D01*
X1116400Y417300D01*
X1117400D01*
X1118400Y416300D01*
X1108500D02*
X1109500Y417300D01*
X1110500D01*
X1109500Y418300D01*
X1110500Y419300D01*
X1109500D01*
X1108500Y420300D01*
X1107500Y419300D01*
X1106500D01*
X1107500Y418300D01*
X1106500Y417300D01*
X1107500D01*
X1108500Y416300D01*
X1098400D02*
X1099400Y417300D01*
X1100400D01*
X1099400Y418300D01*
X1100400Y419300D01*
X1099400D01*
X1098400Y420300D01*
X1097400Y419300D01*
X1096400D01*
X1097400Y418300D01*
X1096400Y417300D01*
X1097400D01*
X1098400Y416300D01*
X1088400D02*
X1089400Y417300D01*
X1090400D01*
X1089400Y418300D01*
X1090400Y419300D01*
X1089400D01*
X1088400Y420300D01*
X1087400Y419300D01*
X1086400D01*
X1087400Y418300D01*
X1086400Y417300D01*
X1087400D01*
X1088400Y416300D01*
X1078400D02*
X1079400Y417300D01*
X1080400D01*
X1079400Y418300D01*
X1080400Y419300D01*
X1079400D01*
X1078400Y420300D01*
X1077400Y419300D01*
X1076400D01*
X1077400Y418300D01*
X1076400Y417300D01*
X1077400D01*
X1078400Y416300D01*
X1068500D02*
X1069500Y417300D01*
X1070500D01*
X1069500Y418300D01*
X1070500Y419300D01*
X1069500D01*
X1068500Y420300D01*
X1067500Y419300D01*
X1066500D01*
X1067500Y418300D01*
X1066500Y417300D01*
X1067500D01*
X1068500Y416300D01*
X1058500D02*
X1059500Y417300D01*
X1060500D01*
X1059500Y418300D01*
X1060500Y419300D01*
X1059500D01*
X1058500Y420300D01*
X1057500Y419300D01*
X1056500D01*
X1057500Y418300D01*
X1056500Y417300D01*
X1057500D01*
X1058500Y416300D01*
X1048181Y416298D02*
X1049181Y417298D01*
X1050181D01*
X1049181Y418298D01*
X1050181Y419298D01*
X1049181D01*
X1048181Y420298D01*
X1047181Y419298D01*
X1046181D01*
X1047181Y418298D01*
X1046181Y417298D01*
X1047181D01*
X1048181Y416298D01*
X1038500Y416300D02*
X1039500Y417300D01*
X1040500D01*
X1039500Y418300D01*
X1040500Y419300D01*
X1039500D01*
X1038500Y420300D01*
X1037500Y419300D01*
X1036500D01*
X1037500Y418300D01*
X1036500Y417300D01*
X1037500D01*
X1038500Y416300D01*
X1028500D02*
X1029500Y417300D01*
X1030500D01*
X1029500Y418300D01*
X1030500Y419300D01*
X1029500D01*
X1028500Y420300D01*
X1027500Y419300D01*
X1026500D01*
X1027500Y418300D01*
X1026500Y417300D01*
X1027500D01*
X1028500Y416300D01*
X988600Y416400D02*
X989600Y417400D01*
X990600D01*
X989600Y418400D01*
X990600Y419400D01*
X989600D01*
X988600Y420400D01*
X987600Y419400D01*
X986600D01*
X987600Y418400D01*
X986600Y417400D01*
X987600D01*
X988600Y416400D01*
X1018500D02*
X1019500Y417400D01*
X1020500D01*
X1019500Y418400D01*
X1020500Y419400D01*
X1019500D01*
X1018500Y420400D01*
X1017500Y419400D01*
X1016500D01*
X1017500Y418400D01*
X1016500Y417400D01*
X1017500D01*
X1018500Y416400D01*
X1008600Y416300D02*
X1009600Y417300D01*
X1010600D01*
X1009600Y418300D01*
X1010600Y419300D01*
X1009600D01*
X1008600Y420300D01*
X1007600Y419300D01*
X1006600D01*
X1007600Y418300D01*
X1006600Y417300D01*
X1007600D01*
X1008600Y416300D01*
X998500Y416400D02*
X999500Y417400D01*
X1000500D01*
X999500Y418400D01*
X1000500Y419400D01*
X999500D01*
X998500Y420400D01*
X997500Y419400D01*
X996500D01*
X997500Y418400D01*
X996500Y417400D01*
X997500D01*
X998500Y416400D01*
X978600Y416300D02*
X979600Y417300D01*
X980600D01*
X979600Y418300D01*
X980600Y419300D01*
X979600D01*
X978600Y420300D01*
X977600Y419300D01*
X976600D01*
X977600Y418300D01*
X976600Y417300D01*
X977600D01*
X978600Y416300D01*
X978400Y406500D02*
X979400Y407500D01*
X980400D01*
X979400Y408500D01*
X980400Y409500D01*
X979400D01*
X978400Y410500D01*
X977400Y409500D01*
X976400D01*
X977400Y408500D01*
X976400Y407500D01*
X977400D01*
X978400Y406500D01*
X988400Y406499D02*
X989400Y407499D01*
X990400D01*
X989400Y408499D01*
X990400Y409499D01*
X989400D01*
X988400Y410499D01*
X987400Y409499D01*
X986400D01*
X987400Y408499D01*
X986400Y407499D01*
X987400D01*
X988400Y406499D01*
X998500D02*
X999500Y407499D01*
X1000500D01*
X999500Y408499D01*
X1000500Y409499D01*
X999500D01*
X998500Y410499D01*
X997500Y409499D01*
X996500D01*
X997500Y408499D01*
X996500Y407499D01*
X997500D01*
X998500Y406499D01*
X1008300Y406500D02*
X1009300Y407500D01*
X1010300D01*
X1009300Y408500D01*
X1010300Y409500D01*
X1009300D01*
X1008300Y410500D01*
X1007300Y409500D01*
X1006300D01*
X1007300Y408500D01*
X1006300Y407500D01*
X1007300D01*
X1008300Y406500D01*
X1018400Y406400D02*
X1019400Y407400D01*
X1020400D01*
X1019400Y408400D01*
X1020400Y409400D01*
X1019400D01*
X1018400Y410400D01*
X1017400Y409400D01*
X1016400D01*
X1017400Y408400D01*
X1016400Y407400D01*
X1017400D01*
X1018400Y406400D01*
X1028400Y406499D02*
X1029400Y407499D01*
X1030400D01*
X1029400Y408499D01*
X1030400Y409499D01*
X1029400D01*
X1028400Y410499D01*
X1027400Y409499D01*
X1026400D01*
X1027400Y408499D01*
X1026400Y407499D01*
X1027400D01*
X1028400Y406499D01*
X1038400D02*
X1039400Y407499D01*
X1040400D01*
X1039400Y408499D01*
X1040400Y409499D01*
X1039400D01*
X1038400Y410499D01*
X1037400Y409499D01*
X1036400D01*
X1037400Y408499D01*
X1036400Y407499D01*
X1037400D01*
X1038400Y406499D01*
X1048500D02*
X1049500Y407499D01*
X1050500D01*
X1049500Y408499D01*
X1050500Y409499D01*
X1049500D01*
X1048500Y410499D01*
X1047500Y409499D01*
X1046500D01*
X1047500Y408499D01*
X1046500Y407499D01*
X1047500D01*
X1048500Y406499D01*
X1058500Y406400D02*
X1059500Y407400D01*
X1060500D01*
X1059500Y408400D01*
X1060500Y409400D01*
X1059500D01*
X1058500Y410400D01*
X1057500Y409400D01*
X1056500D01*
X1057500Y408400D01*
X1056500Y407400D01*
X1057500D01*
X1058500Y406400D01*
X1068600D02*
X1069600Y407400D01*
X1070600D01*
X1069600Y408400D01*
X1070600Y409400D01*
X1069600D01*
X1068600Y410400D01*
X1067600Y409400D01*
X1066600D01*
X1067600Y408400D01*
X1066600Y407400D01*
X1067600D01*
X1068600Y406400D01*
X1078500Y406499D02*
X1079500Y407499D01*
X1080500D01*
X1079500Y408499D01*
X1080500Y409499D01*
X1079500D01*
X1078500Y410499D01*
X1077500Y409499D01*
X1076500D01*
X1077500Y408499D01*
X1076500Y407499D01*
X1077500D01*
X1078500Y406499D01*
X1088500D02*
X1089500Y407499D01*
X1090500D01*
X1089500Y408499D01*
X1090500Y409499D01*
X1089500D01*
X1088500Y410499D01*
X1087500Y409499D01*
X1086500D01*
X1087500Y408499D01*
X1086500Y407499D01*
X1087500D01*
X1088500Y406499D01*
X1108700Y406500D02*
X1109700Y407500D01*
X1110700D01*
X1109700Y408500D01*
X1110700Y409500D01*
X1109700D01*
X1108700Y410500D01*
X1107700Y409500D01*
X1106700D01*
X1107700Y408500D01*
X1106700Y407500D01*
X1107700D01*
X1108700Y406500D01*
X1118500D02*
X1119500Y407500D01*
X1120500D01*
X1119500Y408500D01*
X1120500Y409500D01*
X1119500D01*
X1118500Y410500D01*
X1117500Y409500D01*
X1116500D01*
X1117500Y408500D01*
X1116500Y407500D01*
X1117500D01*
X1118500Y406500D01*
X1128300Y406499D02*
X1129300Y407499D01*
X1130300D01*
X1129300Y408499D01*
X1130300Y409499D01*
X1129300D01*
X1128300Y410499D01*
X1127300Y409499D01*
X1126300D01*
X1127300Y408499D01*
X1126300Y407499D01*
X1127300D01*
X1128300Y406499D01*
X1138300Y406400D02*
X1139300Y407400D01*
X1140300D01*
X1139300Y408400D01*
X1140300Y409400D01*
X1139300D01*
X1138300Y410400D01*
X1137300Y409400D01*
X1136300D01*
X1137300Y408400D01*
X1136300Y407400D01*
X1137300D01*
X1138300Y406400D01*
X1148400Y406500D02*
X1149400Y407500D01*
X1150400D01*
X1149400Y408500D01*
X1150400Y409500D01*
X1149400D01*
X1148400Y410500D01*
X1147400Y409500D01*
X1146400D01*
X1147400Y408500D01*
X1146400Y407500D01*
X1147400D01*
X1148400Y406500D01*
X1098500D02*
X1099500Y407500D01*
X1100500D01*
X1099500Y408500D01*
X1100500Y409500D01*
X1099500D01*
X1098500Y410500D01*
X1097500Y409500D01*
X1096500D01*
X1097500Y408500D01*
X1096500Y407500D01*
X1097500D01*
X1098500Y406500D01*
X1128400Y416200D02*
X1129400Y417200D01*
X1130400D01*
X1129400Y418200D01*
X1130400Y419200D01*
X1129400D01*
X1128400Y420200D01*
X1127400Y419200D01*
X1126400D01*
X1127400Y418200D01*
X1126400Y417200D01*
X1127400D01*
X1128400Y416200D01*
X1150000Y175900D02*
X1151000Y176900D01*
X1152000D01*
X1151000Y177900D01*
X1152000Y178900D01*
X1151000D01*
X1150000Y179900D01*
X1149000Y178900D01*
X1148000D01*
X1149000Y177900D01*
X1148000Y176900D01*
X1149000D01*
X1150000Y175900D01*
Y126100D02*
X1151000Y127100D01*
X1152000D01*
X1151000Y128100D01*
X1152000Y129100D01*
X1151000D01*
X1150000Y130100D01*
X1149000Y129100D01*
X1148000D01*
X1149000Y128100D01*
X1148000Y127100D01*
X1149000D01*
X1150000Y126100D01*
Y136100D02*
X1151000Y137100D01*
X1152000D01*
X1151000Y138100D01*
X1152000Y139100D01*
X1151000D01*
X1150000Y140100D01*
X1149000Y139100D01*
X1148000D01*
X1149000Y138100D01*
X1148000Y137100D01*
X1149000D01*
X1150000Y136100D01*
Y146100D02*
X1151000Y147100D01*
X1152000D01*
X1151000Y148100D01*
X1152000Y149100D01*
X1151000D01*
X1150000Y150100D01*
X1149000Y149100D01*
X1148000D01*
X1149000Y148100D01*
X1148000Y147100D01*
X1149000D01*
X1150000Y146100D01*
Y155800D02*
X1151000Y156800D01*
X1152000D01*
X1151000Y157800D01*
X1152000Y158800D01*
X1151000D01*
X1150000Y159800D01*
X1149000Y158800D01*
X1148000D01*
X1149000Y157800D01*
X1148000Y156800D01*
X1149000D01*
X1150000Y155800D01*
Y166000D02*
X1151000Y167000D01*
X1152000D01*
X1151000Y168000D01*
X1152000Y169000D01*
X1151000D01*
X1150000Y170000D01*
X1149000Y169000D01*
X1148000D01*
X1149000Y168000D01*
X1148000Y167000D01*
X1149000D01*
X1150000Y166000D01*
Y186000D02*
X1151000Y187000D01*
X1152000D01*
X1151000Y188000D01*
X1152000Y189000D01*
X1151000D01*
X1150000Y190000D01*
X1149000Y189000D01*
X1148000D01*
X1149000Y188000D01*
X1148000Y187000D01*
X1149000D01*
X1150000Y186000D01*
Y196000D02*
X1151000Y197000D01*
X1152000D01*
X1151000Y198000D01*
X1152000Y199000D01*
X1151000D01*
X1150000Y200000D01*
X1149000Y199000D01*
X1148000D01*
X1149000Y198000D01*
X1148000Y197000D01*
X1149000D01*
X1150000Y196000D01*
Y116100D02*
X1151000Y117100D01*
X1152000D01*
X1151000Y118100D01*
X1152000Y119100D01*
X1151000D01*
X1150000Y120100D01*
X1149000Y119100D01*
X1148000D01*
X1149000Y118100D01*
X1148000Y117100D01*
X1149000D01*
X1150000Y116100D01*
Y105900D02*
X1151000Y106900D01*
X1152000D01*
X1151000Y107900D01*
X1152000Y108900D01*
X1151000D01*
X1150000Y109900D01*
X1149000Y108900D01*
X1148000D01*
X1149000Y107900D01*
X1148000Y106900D01*
X1149000D01*
X1150000Y105900D01*
X1228000Y327500D02*
Y331500D01*
X1232000D01*
Y327500D01*
X1228000D01*
X1243354Y327303D02*
Y331303D01*
X1247354D01*
Y327303D01*
X1243354D01*
X1189200Y402600D02*
Y401600D01*
X1191200D01*
Y402600D01*
X1192200D01*
Y404600D01*
X1191200D01*
Y405600D01*
X1189200D01*
Y404600D01*
X1188200D01*
Y402600D01*
X1189200D01*
X1296900Y559800D02*
Y558800D01*
X1298900D01*
Y559800D01*
X1299900D01*
Y561800D01*
X1298900D01*
Y562800D01*
X1296900D01*
Y561800D01*
X1295900D01*
Y559800D01*
X1296900D01*
X1343000Y489000D02*
Y488000D01*
X1345000D01*
Y489000D01*
X1346000D01*
Y491000D01*
X1345000D01*
Y492000D01*
X1343000D01*
Y491000D01*
X1342000D01*
Y489000D01*
X1343000D01*
Y503000D02*
Y502000D01*
X1345000D01*
Y503000D01*
X1346000D01*
Y505000D01*
X1345000D01*
Y506000D01*
X1343000D01*
Y505000D01*
X1342000D01*
Y503000D01*
X1343000D01*
X1162600Y429000D02*
Y428000D01*
X1164600D01*
Y429000D01*
X1165600D01*
Y431000D01*
X1164600D01*
Y432000D01*
X1162600D01*
Y431000D01*
X1161600D01*
Y429000D01*
X1162600D01*
X1075300Y428800D02*
Y427800D01*
X1077300D01*
Y428800D01*
X1078300D01*
Y430800D01*
X1077300D01*
Y431800D01*
X1075300D01*
Y430800D01*
X1074300D01*
Y428800D01*
X1075300D01*
X1144300Y673900D02*
Y672900D01*
X1146300D01*
Y673900D01*
X1147300D01*
Y675900D01*
X1146300D01*
Y676900D01*
X1144300D01*
Y675900D01*
X1143300D01*
Y673900D01*
X1144300D01*
X1127400Y578900D02*
Y577900D01*
X1129400D01*
Y578900D01*
X1130400D01*
Y580900D01*
X1129400D01*
Y581900D01*
X1127400D01*
Y580900D01*
X1126400D01*
Y578900D01*
X1127400D01*
X1009900Y492300D02*
Y491300D01*
X1011900D01*
Y492300D01*
X1012900D01*
Y494300D01*
X1011900D01*
Y495300D01*
X1009900D01*
Y494300D01*
X1008900D01*
Y492300D01*
X1009900D01*
X1117400Y481300D02*
Y480300D01*
X1119400D01*
Y481300D01*
X1120400D01*
Y483300D01*
X1119400D01*
Y484300D01*
X1117400D01*
Y483300D01*
X1116400D01*
Y481300D01*
X1117400D01*
X994000Y443247D02*
Y442247D01*
X996000D01*
Y443247D01*
X997000D01*
Y445247D01*
X996000D01*
Y446247D01*
X994000D01*
Y445247D01*
X993000D01*
Y443247D01*
X994000D01*
Y557000D02*
Y556000D01*
X996000D01*
Y557000D01*
X997000D01*
Y559000D01*
X996000D01*
Y560000D01*
X994000D01*
Y559000D01*
X993000D01*
Y557000D01*
X994000D01*
X1142600Y397800D02*
Y396800D01*
X1144600D01*
Y397800D01*
X1145600D01*
Y399800D01*
X1144600D01*
Y400800D01*
X1142600D01*
Y399800D01*
X1141600D01*
Y397800D01*
X1142600D01*
X1317300Y418000D02*
Y417000D01*
X1319300D01*
Y418000D01*
X1320300D01*
Y420000D01*
X1319300D01*
Y421000D01*
X1317300D01*
Y420000D01*
X1316300D01*
Y418000D01*
X1317300D01*
Y490000D02*
Y489000D01*
X1319300D01*
Y490000D01*
X1320300D01*
Y492000D01*
X1319300D01*
Y493000D01*
X1317300D01*
Y492000D01*
X1316300D01*
Y490000D01*
X1317300D01*
X1496700Y539000D02*
Y538000D01*
X1498700D01*
Y539000D01*
X1499700D01*
Y541000D01*
X1498700D01*
Y542000D01*
X1496700D01*
Y541000D01*
X1495700D01*
Y539000D01*
X1496700D01*
X1449200Y207200D02*
Y206200D01*
X1451200D01*
Y207200D01*
X1452200D01*
Y209200D01*
X1451200D01*
Y210200D01*
X1449200D01*
Y209200D01*
X1448200D01*
Y207200D01*
X1449200D01*
X1239200Y444200D02*
Y443200D01*
X1241200D01*
Y444200D01*
X1242200D01*
Y446200D01*
X1241200D01*
Y447200D01*
X1239200D01*
Y446200D01*
X1238200D01*
Y444200D01*
X1239200D01*
X1232000Y450800D02*
Y449800D01*
X1234000D01*
Y450800D01*
X1235000D01*
Y452800D01*
X1234000D01*
Y453800D01*
X1232000D01*
Y452800D01*
X1231000D01*
Y450800D01*
X1232000D01*
X1288500Y267400D02*
Y266400D01*
X1290500D01*
Y267400D01*
X1291500D01*
Y269400D01*
X1290500D01*
Y270400D01*
X1288500D01*
Y269400D01*
X1287500D01*
Y267400D01*
X1288500D01*
X1000000Y439200D02*
Y438200D01*
X1002000D01*
Y439200D01*
X1003000D01*
Y441200D01*
X1002000D01*
Y442200D01*
X1000000D01*
Y441200D01*
X999000D01*
Y439200D01*
X1000000D01*
X1165100D02*
Y438200D01*
X1167100D01*
Y439200D01*
X1168100D01*
Y441200D01*
X1167100D01*
Y442200D01*
X1165100D01*
Y441200D01*
X1164100D01*
Y439200D01*
X1165100D01*
X916900Y636500D02*
Y635500D01*
X918900D01*
Y636500D01*
X919900D01*
Y638500D01*
X918900D01*
Y639500D01*
X916900D01*
Y638500D01*
X915900D01*
Y636500D01*
X916900D01*
X964647Y385400D02*
Y384400D01*
X966647D01*
Y385400D01*
X967647D01*
Y387400D01*
X966647D01*
Y388400D01*
X964647D01*
Y387400D01*
X963647D01*
Y385400D01*
X964647D01*
X1055401D02*
Y384400D01*
X1057401D01*
Y385400D01*
X1058401D01*
Y387400D01*
X1057401D01*
Y388400D01*
X1055401D01*
Y387400D01*
X1054401D01*
Y385400D01*
X1055401D01*
X1091000Y195000D02*
Y194000D01*
X1093000D01*
Y195000D01*
X1094000D01*
Y197000D01*
X1093000D01*
Y198000D01*
X1091000D01*
Y197000D01*
X1090000D01*
Y195000D01*
X1091000D01*
X1215400Y741000D02*
Y740000D01*
X1217400D01*
Y741000D01*
X1218400D01*
Y743000D01*
X1217400D01*
Y744000D01*
X1215400D01*
Y743000D01*
X1214400D01*
Y741000D01*
X1215400D01*
X798800Y560100D02*
Y559100D01*
X800800D01*
Y560100D01*
X801800D01*
Y562100D01*
X800800D01*
Y563100D01*
X798800D01*
Y562100D01*
X797800D01*
Y560100D01*
X798800D01*
X1030600Y137100D02*
Y136100D01*
X1032600D01*
Y137100D01*
X1033600D01*
Y139100D01*
X1032600D01*
Y140100D01*
X1030600D01*
Y139100D01*
X1029600D01*
Y137100D01*
X1030600D01*
X1332200Y272400D02*
Y271400D01*
X1334200D01*
Y272400D01*
X1335200D01*
Y274400D01*
X1334200D01*
Y275400D01*
X1332200D01*
Y274400D01*
X1331200D01*
Y272400D01*
X1332200D01*
X1166800Y261100D02*
Y260100D01*
X1168800D01*
Y261100D01*
X1169800D01*
Y263100D01*
X1168800D01*
Y264100D01*
X1166800D01*
Y263100D01*
X1165800D01*
Y261100D01*
X1166800D01*
X1283200Y617900D02*
Y616900D01*
X1285200D01*
Y617900D01*
X1286200D01*
Y619900D01*
X1285200D01*
Y620900D01*
X1283200D01*
Y619900D01*
X1282200D01*
Y617900D01*
X1283200D01*
X1385900Y363000D02*
Y362000D01*
X1387900D01*
Y363000D01*
X1388900D01*
Y365000D01*
X1387900D01*
Y366000D01*
X1385900D01*
Y365000D01*
X1384900D01*
Y363000D01*
X1385900D01*
X1471900Y560700D02*
Y559700D01*
X1473900D01*
Y560700D01*
X1474900D01*
Y562700D01*
X1473900D01*
Y563700D01*
X1471900D01*
Y562700D01*
X1470900D01*
Y560700D01*
X1471900D01*
X908800Y665200D02*
Y664200D01*
X910800D01*
Y665200D01*
X911800D01*
Y667200D01*
X910800D01*
Y668200D01*
X908800D01*
Y667200D01*
X907800D01*
Y665200D01*
X908800D01*
X970646Y391500D02*
Y390500D01*
X972646D01*
Y391500D01*
X973646D01*
Y393500D01*
X972646D01*
Y394500D01*
X970646D01*
Y393500D01*
X969646D01*
Y391500D01*
X970646D01*
X1323000Y405000D02*
Y404000D01*
X1325000D01*
Y405000D01*
X1326000D01*
Y407000D01*
X1325000D01*
Y408000D01*
X1323000D01*
Y407000D01*
X1322000D01*
Y405000D01*
X1323000D01*
X1311500Y384622D02*
Y383622D01*
X1313500D01*
Y384622D01*
X1314500D01*
Y386622D01*
X1313500D01*
Y387622D01*
X1311500D01*
Y386622D01*
X1310500D01*
Y384622D01*
X1311500D01*
X1019800Y481500D02*
Y480500D01*
X1021800D01*
Y481500D01*
X1022800D01*
Y483500D01*
X1021800D01*
Y484500D01*
X1019800D01*
Y483500D01*
X1018800D01*
Y481500D01*
X1019800D01*
X1030100Y448700D02*
Y447700D01*
X1032100D01*
Y448700D01*
X1033100D01*
Y450700D01*
X1032100D01*
Y451700D01*
X1030100D01*
Y450700D01*
X1029100D01*
Y448700D01*
X1030100D01*
X1107500D02*
Y447700D01*
X1109500D01*
Y448700D01*
X1110500D01*
Y450700D01*
X1109500D01*
Y451700D01*
X1107500D01*
Y450700D01*
X1106500D01*
Y448700D01*
X1107500D01*
X1079800Y755000D02*
Y754000D01*
X1081800D01*
Y755000D01*
X1082800D01*
Y757000D01*
X1081800D01*
Y758000D01*
X1079800D01*
Y757000D01*
X1078800D01*
Y755000D01*
X1079800D01*
X1446500Y898200D02*
Y897200D01*
X1448500D01*
Y898200D01*
X1449500D01*
Y900200D01*
X1448500D01*
Y901200D01*
X1446500D01*
Y900200D01*
X1445500D01*
Y898200D01*
X1446500D01*
X1483000Y225842D02*
Y224842D01*
X1485000D01*
Y225842D01*
X1486000D01*
Y227842D01*
X1485000D01*
Y228842D01*
X1483000D01*
Y227842D01*
X1482000D01*
Y225842D01*
X1483000D01*
D32*
X1631100Y524200D02*
G03*
X1631100Y524200I-2000J0D01*
G01*
X774400Y593800D02*
G03*
X774400Y593800I-2000J0D01*
G01*
M02*
